<?xml version="1.0" encoding="UTF-8"?>
<svg xmlns="http://www.w3.org/2000/svg" viewBox="0 0 800 600">
  <defs>
    <style>
      .cls-1 {
        mix-blend-mode: multiply;
        opacity: .31;
      }

      .cls-2, .cls-3, .cls-4 {
        fill: #fff;
      }

      .cls-3 {
        opacity: .04;
      }

      .cls-5 {
        fill: #1e1e1e;
      }

      .cls-4 {
        opacity: .18;
      }

      .cls-4, .cls-6 {
        isolation: isolate;
      }

      .cls-7 {
        fill: #140f1b;
      }

      .cls-8 {
        fill-rule: evenodd;
      }
    </style>
  </defs>
  <g class="cls-6">
    <g id="Capa_1" data-name="Capa 1">
      <rect class="cls-5" width="800" height="600"/>
      <rect class="cls-2" width="800" height="600"/>
      <rect class="cls-7" width="800" height="600"/>
      <path class="cls-4" d="M19.73,568h-.88c-.05-.25-.14-.48-.27-.67-.13-.19-.28-.35-.47-.48-.18-.13-.38-.23-.61-.3-.22-.07-.45-.1-.7-.1-.44,0-.84.11-1.2.33-.35.22-.64.55-.85.98-.21.43-.31.97-.31,1.6s.1,1.16.31,1.59c.21.43.49.76.85.98.36.22.76.33,1.2.33.24,0,.47-.03.7-.1.22-.07.42-.16.61-.29.18-.13.34-.29.47-.49.13-.19.22-.42.27-.67h.88c-.07.37-.19.71-.36,1-.17.29-.39.54-.65.75-.26.2-.55.36-.88.47-.32.1-.67.16-1.03.16-.62,0-1.17-.15-1.65-.45-.48-.3-.86-.73-1.14-1.29-.28-.56-.42-1.22-.42-1.99s.14-1.43.42-1.99c.28-.56.66-.99,1.14-1.29s1.04-.45,1.65-.45c.37,0,.71.05,1.03.16.32.1.62.26.88.47.26.2.48.45.65.75.17.29.3.62.36,1ZM21.04,573v-5.46h.81v.82h.06c.1-.27.28-.49.54-.66s.55-.25.88-.25c.06,0,.14,0,.23,0,.09,0,.16,0,.21.01v.85s-.09-.02-.19-.03c-.1-.02-.2-.03-.32-.03-.26,0-.5.06-.71.17-.21.11-.37.26-.49.45-.12.19-.18.41-.18.66v3.45h-.84ZM26.88,573.11c-.53,0-.98-.12-1.36-.35-.38-.23-.67-.56-.88-.98-.2-.42-.31-.91-.31-1.47s.1-1.05.31-1.48c.21-.43.49-.76.86-1,.37-.24.8-.36,1.29-.36.28,0,.56.05.84.14.28.09.53.25.76.46.23.21.41.49.54.84.14.35.2.78.2,1.29v.35h-4.2v-.72h3.35c0-.31-.06-.58-.18-.82-.12-.24-.29-.43-.52-.57-.22-.14-.49-.21-.79-.21-.33,0-.62.08-.87.25-.24.16-.43.38-.56.64-.13.26-.19.54-.19.84v.48c0,.41.07.76.21,1.05.15.28.34.5.6.65.26.15.55.22.89.22.22,0,.42-.03.6-.09.18-.06.33-.16.47-.28.13-.13.23-.29.3-.48l.81.23c-.08.27-.23.52-.43.72-.2.21-.45.37-.75.48-.29.11-.63.17-1,.17ZM32.02,573.13c-.35,0-.66-.07-.94-.2-.28-.13-.5-.32-.67-.57-.17-.25-.25-.55-.25-.91,0-.31.06-.57.18-.76.12-.2.29-.35.49-.46.21-.11.43-.19.68-.25.25-.06.5-.1.76-.14.33-.04.6-.08.81-.1.21-.02.36-.06.46-.12.1-.05.15-.15.15-.28v-.03c0-.35-.1-.62-.29-.82-.19-.19-.48-.29-.86-.29s-.71.09-.94.26c-.23.18-.39.36-.48.56l-.8-.28c.14-.33.33-.59.57-.77.24-.19.5-.32.78-.39.28-.08.56-.11.84-.11.17,0,.38.02.6.06.23.04.45.12.66.25.22.13.39.32.54.58s.21.6.21,1.04v3.59h-.84v-.74h-.04c-.06.12-.15.24-.28.38-.13.14-.31.25-.53.35-.22.09-.49.14-.81.14ZM32.15,572.38c.33,0,.61-.07.84-.2.23-.13.4-.3.52-.51.12-.21.18-.42.18-.65v-.77s-.11.08-.23.12c-.12.03-.26.06-.41.09-.15.02-.3.04-.45.06-.15.02-.26.03-.35.04-.22.03-.42.08-.61.14-.19.06-.34.16-.45.28-.11.12-.17.29-.17.5,0,.29.11.51.32.66.22.15.49.22.83.22ZM38.42,567.54v.71h-2.83v-.71h2.83ZM36.42,566.24h.84v5.2c0,.24.03.41.1.53.07.12.16.19.27.23.11.04.23.06.35.06.09,0,.17,0,.23-.01.06-.01.11-.02.14-.03l.17.75c-.06.02-.14.04-.24.06-.1.02-.23.03-.39.03-.24,0-.47-.05-.7-.15-.22-.1-.41-.26-.56-.47-.15-.21-.22-.47-.22-.79v-5.42h0ZM41.91,573.11c-.53,0-.98-.12-1.36-.35-.38-.23-.67-.56-.88-.98-.2-.42-.31-.91-.31-1.47s.1-1.05.31-1.48c.21-.43.49-.76.86-1,.37-.24.8-.36,1.29-.36.28,0,.56.05.84.14.28.09.53.25.76.46.23.21.41.49.54.84s.2.78.2,1.29v.35h-4.2v-.72h3.35c0-.31-.06-.58-.19-.82-.12-.24-.29-.43-.52-.57-.22-.14-.49-.21-.79-.21-.33,0-.62.08-.87.25-.24.16-.43.38-.56.64-.13.26-.19.54-.19.84v.48c0,.41.07.76.21,1.05.15.28.34.5.6.65.26.15.55.22.89.22.22,0,.42-.03.6-.09.18-.06.33-.16.47-.28.13-.13.23-.29.3-.48l.81.23c-.08.27-.23.52-.43.72-.2.21-.45.37-.75.48-.3.11-.63.17-1,.17ZM47.51,573.11c-.46,0-.86-.11-1.2-.35s-.62-.56-.82-.98c-.2-.42-.29-.92-.29-1.5s.1-1.07.29-1.49c.2-.42.47-.75.82-.98.35-.23.76-.35,1.21-.35.35,0,.64.06.84.18.21.11.37.25.48.4.11.15.2.27.26.36h.07v-2.69h.84v7.28h-.81v-.84h-.1c-.06.1-.15.22-.26.38-.11.15-.28.28-.49.4-.21.12-.49.17-.84.17ZM47.62,572.36c.34,0,.62-.09.85-.26.23-.18.41-.42.53-.73.12-.32.18-.68.18-1.09s-.06-.77-.18-1.07c-.12-.31-.29-.55-.53-.72-.23-.17-.52-.26-.86-.26s-.65.09-.89.27c-.23.18-.41.42-.53.73-.12.31-.17.65-.17,1.04s.06.74.18,1.06c.12.32.3.57.53.75.24.18.53.28.88.28ZM54.58,573v-7.27h.84v2.69h.07c.06-.09.15-.22.26-.36.11-.15.27-.28.48-.4.21-.12.49-.18.85-.18.46,0,.86.11,1.21.35.35.23.62.55.82.98.2.42.29.92.29,1.49s-.1,1.08-.29,1.5c-.2.42-.47.75-.82.98-.35.23-.75.35-1.2.35-.35,0-.63-.06-.84-.17-.21-.12-.37-.25-.49-.4-.11-.15-.2-.28-.26-.38h-.1v.84h-.81ZM55.41,570.27c0,.41.06.77.18,1.09.12.31.3.56.53.73.23.18.52.26.85.26s.64-.09.88-.28c.24-.19.42-.44.53-.75.12-.32.18-.67.18-1.06s-.06-.73-.18-1.04c-.12-.31-.29-.56-.53-.73-.23-.18-.53-.27-.88-.27s-.63.09-.86.26c-.23.17-.41.41-.53.72-.12.3-.18.66-.18,1.07ZM61.03,575.04c-.14,0-.27-.01-.38-.03-.11-.02-.19-.04-.23-.06l.21-.74c.2.05.38.07.54.06.16-.01.29-.08.42-.21.12-.12.24-.32.34-.6l.16-.43-2.02-5.48h.91l1.51,4.35h.06l1.51-4.35h.91l-2.31,6.25c-.1.28-.23.52-.39.7-.15.19-.33.33-.54.42-.2.09-.43.13-.68.13ZM68.98,573v-7.27h2.54c.51,0,.92.09,1.25.26.33.17.57.41.74.7.16.29.24.61.24.97,0,.31-.06.57-.17.77-.11.2-.25.36-.43.48-.18.12-.37.21-.58.26v.07c.22.01.45.09.67.23s.41.35.57.61c.15.27.23.59.23.97,0,.36-.08.69-.25.98s-.43.52-.79.69c-.36.17-.82.26-1.4.26h-2.62ZM69.86,572.22h1.75c.57,0,.98-.11,1.22-.33.24-.22.37-.5.37-.82,0-.25-.06-.47-.19-.68-.12-.21-.3-.38-.54-.5-.23-.13-.51-.19-.82-.19h-1.79v2.53h0ZM69.86,568.92h1.63c.26,0,.5-.05.72-.16.21-.1.39-.25.51-.44.13-.19.19-.41.19-.67,0-.32-.11-.59-.33-.81-.22-.22-.57-.34-1.06-.34h-1.66s0,2.41,0,2.41ZM75.37,573v-5.46h.81v.82h.06c.1-.27.28-.49.54-.66s.55-.25.88-.25c.06,0,.14,0,.23,0,.09,0,.16,0,.21.01v.85s-.09-.02-.19-.03c-.1-.02-.21-.03-.32-.03-.26,0-.5.06-.71.17-.21.11-.37.26-.49.45-.12.19-.18.41-.18.66v3.45h-.84ZM82.53,570.77v-3.22h.84v5.45h-.84v-.92h-.06c-.13.28-.33.51-.6.71-.27.19-.61.29-1.02.29-.34,0-.64-.08-.91-.22-.26-.15-.47-.38-.62-.68-.15-.3-.23-.69-.23-1.15v-3.47h.84v3.41c0,.4.11.72.33.95.22.24.51.35.86.35.21,0,.42-.05.64-.16.22-.11.4-.27.55-.49.15-.22.22-.5.22-.84ZM85.74,569.72v3.28h-.84v-5.46h.81v.85h.07c.13-.28.32-.5.58-.67.26-.17.6-.26,1.01-.26.37,0,.69.08.97.23.28.15.49.38.65.68.15.3.23.69.23,1.15v3.47h-.84v-3.41c0-.43-.11-.76-.33-1-.22-.24-.53-.36-.92-.36-.27,0-.51.06-.72.17-.21.11-.37.29-.49.51-.12.22-.18.49-.18.81ZM92.96,573.11c-.49,0-.92-.12-1.3-.35-.37-.23-.66-.56-.87-.98-.21-.42-.31-.91-.31-1.48s.1-1.06.31-1.49c.21-.42.5-.75.87-.99.37-.23.8-.35,1.3-.35s.92.12,1.29.35c.37.23.66.56.87.99.21.42.31.92.31,1.49s-.1,1.06-.31,1.48c-.21.42-.5.75-.87.98-.37.23-.8.35-1.29.35ZM92.96,572.36c.37,0,.68-.1.92-.29.24-.19.42-.44.54-.76.12-.31.17-.65.17-1.02s-.06-.7-.17-1.02c-.12-.32-.29-.57-.54-.77-.24-.19-.55-.29-.92-.29s-.68.1-.92.29c-.24.2-.42.45-.54.77-.12.31-.17.66-.17,1.02s.06.7.17,1.02c.12.31.29.56.54.76.24.19.55.29.92.29ZM99.64,573v-7.27h2.46c.57,0,1.03.1,1.4.29.36.19.63.46.81.79.18.34.26.72.26,1.15s-.09.81-.26,1.14c-.18.33-.44.59-.81.78-.36.19-.82.28-1.39.28h-1.99v-.79h1.96c.39,0,.7-.06.94-.17.24-.11.41-.27.52-.48.11-.21.16-.46.16-.75s-.06-.54-.16-.76c-.11-.22-.28-.39-.52-.5-.24-.12-.56-.18-.95-.18h-1.55v6.49h-.88ZM103.07,569.73l1.79,3.27h-1.02l-1.76-3.27h1ZM107.53,573.13c-.35,0-.66-.07-.94-.2-.28-.13-.5-.32-.67-.57-.17-.25-.25-.55-.25-.91,0-.31.06-.57.18-.76.12-.2.29-.35.49-.46.21-.11.43-.19.68-.25.25-.06.5-.1.76-.14.33-.04.6-.08.81-.1.21-.02.36-.06.46-.12.1-.05.14-.15.14-.28v-.03c0-.35-.1-.62-.29-.82-.19-.19-.48-.29-.86-.29s-.71.09-.94.26c-.23.18-.39.36-.48.56l-.79-.28c.14-.33.33-.59.57-.77.24-.19.5-.32.78-.39.28-.08.56-.11.84-.11.18,0,.38.02.6.06.23.04.45.12.66.25.22.13.39.32.54.58s.21.6.21,1.04v3.59h-.84v-.74h-.04c-.06.12-.15.24-.28.38-.13.14-.31.25-.53.35-.22.09-.49.14-.81.14ZM107.66,572.38c.33,0,.61-.07.84-.2.23-.13.4-.3.52-.51.12-.21.18-.42.18-.65v-.77s-.11.08-.23.12c-.12.03-.26.06-.41.09-.15.02-.3.04-.45.06-.14.02-.26.03-.35.04-.22.03-.42.08-.61.14-.19.06-.34.16-.46.28-.11.12-.17.29-.17.5,0,.29.11.51.32.66.22.15.49.22.83.22ZM111.56,573v-5.46h.81v.85h.07c.11-.29.3-.52.55-.68.25-.16.56-.24.91-.24s.66.08.9.24c.24.16.43.39.57.68h.06c.14-.28.35-.51.63-.67.28-.17.61-.25,1-.25.49,0,.89.15,1.2.46.31.3.46.78.46,1.42v3.65h-.84v-3.65c0-.4-.11-.69-.33-.86-.22-.17-.48-.26-.78-.26-.38,0-.68.12-.89.35-.21.23-.32.52-.32.87v3.55h-.85v-3.74c0-.31-.1-.56-.3-.75-.2-.19-.46-.29-.78-.29-.22,0-.42.06-.61.17-.19.11-.34.28-.45.48-.11.2-.17.44-.17.71v3.41h-.84ZM122.47,573.11c-.49,0-.92-.12-1.3-.35-.37-.23-.66-.56-.87-.98-.21-.42-.31-.91-.31-1.48s.1-1.06.31-1.49c.21-.42.5-.75.87-.99.37-.23.8-.35,1.3-.35s.92.12,1.29.35c.37.23.66.56.87.99.21.42.31.92.31,1.49s-.1,1.06-.31,1.48c-.21.42-.49.75-.87.98-.37.23-.8.35-1.29.35ZM122.47,572.36c.37,0,.68-.1.92-.29.24-.19.42-.44.54-.76.12-.31.17-.65.17-1.02s-.06-.7-.17-1.02c-.12-.32-.29-.57-.54-.77-.24-.19-.55-.29-.92-.29s-.68.1-.92.29c-.24.2-.42.45-.54.77-.12.31-.17.66-.17,1.02s.06.7.17,1.02c.12.31.29.56.54.76.24.19.55.29.92.29ZM130.08,568.77l-.75.21c-.05-.12-.12-.25-.21-.37-.09-.12-.21-.22-.37-.3-.16-.08-.36-.12-.6-.12-.33,0-.61.08-.83.23-.22.15-.33.34-.33.58,0,.21.08.37.23.49.15.12.39.22.71.3l.81.2c.49.12.85.3,1.09.54.24.24.36.55.36.93,0,.31-.09.59-.27.84-.18.25-.43.44-.74.58-.32.14-.69.21-1.12.21-.56,0-1.02-.12-1.38-.36-.36-.24-.6-.59-.69-1.06l.79-.2c.08.29.22.51.43.66.21.15.49.22.83.22.39,0,.7-.08.93-.25.23-.17.35-.37.35-.6,0-.19-.07-.35-.2-.48-.13-.13-.34-.23-.61-.29l-.91-.21c-.5-.12-.87-.3-1.1-.55-.23-.25-.35-.56-.35-.94,0-.31.09-.58.26-.82.18-.24.41-.42.71-.56.3-.14.65-.2,1.03-.2.54,0,.96.12,1.27.36.31.24.53.55.66.94Z"/>
      <path class="cls-4" d="M18.23,582.54l-2.02,5.46h-.85l-2.02-5.46h.91l1.51,4.35h.06l1.51-4.35h.91ZM21.42,588.11c-.53,0-.98-.12-1.36-.35-.38-.23-.67-.56-.88-.98-.2-.42-.31-.91-.31-1.47s.1-1.05.31-1.48c.21-.43.49-.76.86-1,.37-.24.8-.36,1.29-.36.28,0,.56.05.84.14.28.09.53.25.76.46.23.21.41.49.54.84.14.35.2.78.2,1.29v.35h-4.2v-.72h3.35c0-.31-.06-.58-.18-.82-.12-.24-.29-.43-.52-.57-.22-.14-.49-.21-.79-.21-.33,0-.62.08-.87.25-.24.16-.43.38-.56.64-.13.26-.19.54-.19.84v.48c0,.41.07.76.21,1.05.15.28.34.5.6.65.26.15.55.22.89.22.22,0,.42-.03.6-.09.18-.06.33-.16.47-.28.13-.13.23-.29.3-.48l.81.23c-.08.27-.23.52-.43.72-.2.21-.45.37-.75.48-.29.11-.63.17-.99.17ZM24.96,588v-5.46h.81v.82h.06c.1-.27.28-.49.54-.66s.55-.25.88-.25c.06,0,.14,0,.23,0,.09,0,.16,0,.21.01v.85s-.09-.02-.19-.03c-.1-.02-.2-.03-.32-.03-.26,0-.5.06-.71.17-.21.11-.37.26-.49.45-.12.19-.18.41-.18.66v3.45h-.84ZM32.54,583.77l-.75.21c-.05-.12-.12-.25-.21-.37-.09-.12-.21-.22-.37-.3-.16-.08-.36-.12-.6-.12-.33,0-.61.08-.83.23-.22.15-.33.34-.33.58,0,.21.08.37.23.49.15.12.39.22.71.3l.81.2c.49.12.85.3,1.09.54.24.24.36.55.36.93,0,.31-.09.59-.27.84-.18.25-.43.44-.75.58-.32.14-.69.21-1.11.21-.56,0-1.02-.12-1.38-.36-.36-.24-.59-.59-.69-1.06l.8-.2c.08.29.22.51.43.66.21.15.49.22.83.22.39,0,.7-.08.93-.25.23-.17.35-.37.35-.6,0-.19-.07-.35-.2-.48-.13-.13-.34-.23-.61-.29l-.91-.21c-.5-.12-.87-.3-1.1-.55-.23-.25-.35-.56-.35-.94,0-.31.09-.58.26-.82.17-.24.41-.42.71-.56.3-.14.65-.2,1.03-.2.54,0,.96.12,1.27.36.31.24.53.55.66.94ZM35.51,588.13c-.35,0-.66-.07-.94-.2-.28-.13-.51-.32-.67-.57-.17-.25-.25-.55-.25-.91,0-.31.06-.57.19-.76.12-.2.29-.35.49-.46.21-.11.43-.19.68-.25.25-.06.5-.1.76-.14.33-.04.6-.08.81-.1.21-.02.36-.06.46-.12.1-.05.15-.15.15-.28v-.03c0-.35-.1-.62-.29-.82-.19-.19-.48-.29-.86-.29s-.71.09-.94.26c-.23.18-.39.36-.48.56l-.79-.28c.14-.33.33-.59.57-.77.24-.19.5-.32.78-.39.28-.08.56-.11.84-.11.17,0,.38.02.6.06.23.04.45.12.66.25.22.13.39.32.54.58s.21.6.21,1.04v3.59h-.84v-.74h-.04c-.06.12-.15.24-.28.38-.13.14-.31.25-.53.35-.22.09-.49.14-.81.14ZM35.64,587.38c.33,0,.61-.07.84-.2.23-.13.4-.3.52-.51.12-.21.18-.42.18-.65v-.77s-.11.08-.23.12c-.12.03-.26.06-.41.09-.15.02-.3.04-.45.06-.15.02-.26.03-.35.04-.22.03-.42.08-.61.14-.19.06-.34.16-.46.28-.11.12-.17.29-.17.5,0,.29.11.51.32.66.22.15.49.22.83.22ZM34.96,581.89l-.65-.03c0-.36.1-.66.31-.89.21-.23.47-.35.77-.35.13,0,.26.02.36.07.1.04.2.1.3.16.1.06.19.11.29.16.1.04.22.07.35.07.13,0,.25-.05.34-.16.1-.1.14-.23.14-.38l.64.06c0,.37-.1.66-.31.88-.21.22-.46.33-.77.33-.16,0-.3-.02-.4-.07-.11-.05-.2-.1-.28-.16-.08-.06-.17-.11-.26-.16-.09-.05-.21-.07-.34-.07s-.25.05-.34.16c-.09.1-.13.23-.13.38ZM41.75,588.11c-.49,0-.92-.12-1.3-.35-.37-.23-.66-.56-.87-.98-.21-.42-.31-.91-.31-1.48s.1-1.06.31-1.49c.21-.42.5-.75.87-.99.37-.23.8-.35,1.3-.35s.92.12,1.29.35c.37.23.66.56.87.99.21.42.31.92.31,1.49s-.1,1.06-.31,1.48c-.21.42-.49.75-.87.98-.37.23-.8.35-1.29.35ZM41.75,587.36c.37,0,.68-.1.92-.29.24-.19.42-.44.54-.76.12-.31.17-.65.17-1.02s-.06-.7-.17-1.02-.29-.57-.54-.77c-.24-.19-.55-.29-.92-.29s-.68.1-.92.29c-.24.2-.42.45-.54.77-.12.31-.17.66-.17,1.02s.06.7.17,1.02c.12.31.29.56.54.76.24.19.55.29.92.29ZM50.86,580.73v7.27h-.88v-6.35h-.04l-1.78,1.18v-.9l1.82-1.21h.88ZM53.15,588.06c-.17,0-.33-.06-.45-.19-.12-.13-.19-.28-.19-.45s.06-.33.19-.45c.12-.13.28-.19.45-.19s.33.06.45.19c.12.12.19.28.19.45,0,.12-.03.22-.09.32-.06.1-.13.17-.23.23-.09.06-.2.09-.32.09ZM57.4,588.1c-.53,0-.99-.15-1.37-.44-.38-.29-.66-.72-.86-1.28-.2-.56-.3-1.23-.3-2.02s.1-1.46.3-2.02c.2-.56.49-.98.87-1.28.38-.3.83-.44,1.36-.44s.98.15,1.36.44c.38.29.67.72.87,1.28.2.56.3,1.23.3,2.02s-.1,1.47-.3,2.02c-.2.56-.49.98-.86,1.28-.38.29-.83.44-1.37.44ZM57.4,587.32c.53,0,.94-.26,1.24-.77.29-.51.44-1.24.44-2.19,0-.63-.07-1.17-.2-1.61-.13-.44-.32-.78-.58-1.01-.25-.23-.55-.35-.9-.35-.53,0-.94.26-1.23.78-.3.52-.44,1.25-.44,2.19,0,.63.07,1.16.2,1.6.13.44.32.78.57,1.01.25.23.55.35.91.35ZM64.08,588v-.64l2.4-2.63c.28-.31.51-.58.7-.8s.32-.44.4-.65c.09-.2.14-.42.14-.64,0-.26-.06-.48-.18-.66-.12-.19-.29-.33-.5-.43-.21-.1-.45-.15-.71-.15-.28,0-.52.06-.73.17-.21.11-.37.27-.48.48-.11.21-.17.45-.17.73h-.84c0-.43.1-.8.29-1.12.2-.32.46-.57.8-.75.34-.18.72-.27,1.15-.27s.8.09,1.13.27c.33.18.59.42.77.73.19.3.28.65.28,1.02,0,.27-.05.53-.15.78-.1.25-.26.54-.5.85-.23.31-.56.69-.98,1.14l-1.63,1.75v.06h3.38v.78h-4.59ZM72.51,588.1c-.54,0-.99-.15-1.37-.44-.38-.29-.66-.72-.86-1.28-.2-.56-.3-1.23-.3-2.02s.1-1.46.3-2.02c.2-.56.49-.98.87-1.28.38-.3.83-.44,1.36-.44s.98.15,1.36.44c.38.29.67.72.87,1.28.2.56.3,1.23.3,2.02s-.1,1.47-.3,2.02c-.2.56-.49.98-.86,1.28-.38.29-.83.44-1.37.44ZM72.51,587.32c.53,0,.94-.26,1.24-.77.29-.51.44-1.24.44-2.19,0-.63-.07-1.17-.2-1.61-.13-.44-.32-.78-.57-1.01-.25-.23-.55-.35-.9-.35-.53,0-.94.26-1.23.78-.3.52-.44,1.25-.44,2.19,0,.63.07,1.16.2,1.6.13.44.32.78.57,1.01.25.23.55.35.91.35ZM76.39,588v-.64l2.4-2.63c.28-.31.51-.58.7-.8s.32-.44.4-.65c.09-.2.14-.42.14-.64,0-.26-.06-.48-.18-.66-.12-.19-.29-.33-.5-.43-.21-.1-.45-.15-.71-.15-.28,0-.52.06-.73.17-.21.11-.37.27-.48.48-.11.21-.17.45-.17.73h-.84c0-.43.1-.8.29-1.12.2-.32.46-.57.8-.75.34-.18.72-.27,1.15-.27s.8.09,1.13.27c.33.18.59.42.77.73.19.3.28.65.28,1.02,0,.27-.05.53-.15.78-.1.25-.26.54-.5.85-.23.31-.56.69-.98,1.14l-1.63,1.75v.06h3.38v.78h-4.59ZM84.72,588.1c-.42,0-.79-.08-1.12-.25s-.6-.39-.8-.68-.31-.62-.33-.99h.85c.03.33.18.6.45.82.27.21.59.32.96.32.3,0,.56-.07.79-.21.23-.14.42-.33.55-.58.14-.25.2-.52.2-.83s-.07-.6-.21-.85c-.14-.25-.33-.45-.57-.59-.24-.14-.52-.22-.83-.22-.22,0-.45.03-.69.1-.23.07-.43.16-.58.27l-.82-.1.44-3.58h3.78v.78h-3.04l-.25,2.15h.04c.15-.12.34-.22.56-.29s.46-.12.7-.12c.44,0,.84.11,1.19.32.35.21.62.5.82.87.2.37.3.79.3,1.26s-.1.88-.31,1.24c-.21.36-.49.65-.85.86-.36.21-.77.31-1.23.31Z"/>
      <rect class="cls-3" x="136" y="6.43" width="659.93" height="587.31" rx="9.5" ry="9.5"/>
      <g class="cls-1">
        <path class="cls-8" d="M795.71,353.15c-4.59-11.57-14.32-19.65-23.87-27.12-6.06-6.53-3.14-17.97-7.56-25.66-5.57-13.01-18.39-19.11-32.12-15.83-8.51,2.25-14.55,6.73-23.86,7.62,16.28-64.95,33.49-129.17,50.21-193.95,3.3-14-14.46-31.71-24.8-39.39-47.31-37.54-199.8-76.24-248.9-34.04-25.81,66.34-39.74,138.56-61.24,206.93-2.36,12-39.99-6.33-62.46,32.25-51.25,27.88-44.02,116.59,25.41,95.77-7.8,31.33-16.29,62.34-24.08,93.65-.74,2.93-.4,6.57.66,9.43,4.23,11.5,10.95,21.51,19.99,29.8,2.57,2.35,3.43,4.81,3.48,8.19.27,22.42.78,44.85,1.1,67.28.05,3.25.82,5.09,4.47,5.83,78.82,15.73,158.38,21.19,238.68,18.72,15.02-.46,26.68-4.02,35.23-16.41,4.02-3.34,6.02-7.1,5.66-12.56-1-54.92-2.15-109.64-2.81-164.58,24.44,25.27,69.85,28.7,92.15,1.18,3.34-5.3,6.76-6.85,12.58-7.65,20.94-2.9,30.37-19.96,22.11-39.46ZM762.8,311.29c2.01,10.63.52,20.75-4.95,30.51-4.13-4-11.6-6.53-10.9-13.27-.66-16.17-13.93-26.55-26.79-33.78,20.76-12.99,38.77-3.87,42.64,16.54ZM761.9,365.05c-12.52-.01-17.96-6.91-27.22-13.41-.7-.41-1.39-.77-2.11-1.12-13.57-5.41-33.03-8.8-45.1,1.18-7.03,6.26-15.11,3.43-24.24,4.06,22-39.38,86.81-36.01,100.2,8.22-.51.36-1.02.72-1.53,1.07ZM720.77,394.62c-12.18,2.18-25.37-3.11-32.82-12.95h0c15.68-3.29,25.54-16.45,15.43-31.11h0c4.5,1.03,11.85-1.87,13.53,3.76,2.87,11.74,8.48,23.51,18.92,30.27-3.1,5.49-8.92,8.94-15.04,10.04ZM640.04,381.69c6.76.41,13.52.82,20.28,1.22h0s-20.32-.77-20.32-.77c.02-.15.03-.3.04-.45ZM576.33,361.16c-6.06-2.64-11.95-6.41-16.81-10.87-15.45-14.15,7.57-28.45,21.86-26,5.2,2.23,2.13,9.02,2.86,14.2-3.03-2.82-4.68-4.4-8.61-3.89,4.95,15.8,41.32,23.2,56.5,24.27,14.16-.24,49.26,6.75,58.26-3,7.02-6.43,9.75-.79,11.86,5.48,1.23,32.21-107.94,10.44-125.92-.18ZM623.39,394.46c-34.58-2.14-32.25,4.69-31.86-21.19,14.33,2.84,28.53,5.65,42.9,8.48.28,3.37.58,6.93.92,11.17-4,.48-7.94,1.34-11.96,1.54ZM548.95,380.63c-27.28-.68-54.54-1.81-81.82-2.36-7.91.55-5.65-6.35-5.93-11.9,15.95.52,33.84,3.02,48.58-4.22,11.65-7.06,13.23-22.85,4.66-33.49-12.77-15.6-34.81-18.46-52.85-25.06,2.01-11.87,4.53-24.55,12.99-33.64,23.12-20.64,57.71-20.25,84.52-5.09,17.41,11.02,22.16,34.42,24.06,53.72-8.33.81-17.27,1.13-24.35,6.11-8.62,5.49-13.06,17.98-5.46,26.17,16.07,20.25,37.51,12.9,32.67,29.83-12.39,0-24.71.27-37.07-.06ZM455.81,384.87c-13.76,2.7-28.89,4.59-42.38.08-.54-.43-1.11-1.06-1.17-1.68-.19-9.77-.12-19.54-.11-29.39,13.75,4.19,28.33,7.31,42.1,11.46,3.65,3.44,1.34,13.59,2.51,19.34-.32.06-.63.14-.95.2ZM378.98,334.39c-22.71-11.12-24.08-32.89.39-43.28,1.25,4.54,2.38,8.63,3.87,14-3.74-2.05-4.58-1.79-8.09-2.48,13.42,24.72,63.52,34.77,89.97,39.55,9.51.61,20.16,5.5,28.86.2-1.82-5.04-5.01-9.64-11.05-8.53.82,1.83.85,4.22,2.81,5.25-.11.36-.22.72-.32,1.09-32.51-5.47-24.57,1.47-25.48-30.87,13.75,2.16,26.43,8.75,39.67,13.18,6.58,2.62,11.4,7.69,13.86,14.6,11.69,52.73-113.41,10.47-134.49-2.71ZM368.02,334.79c-.06.01-.13.05-.19.05-5.72,1.74-12.07-1.24-14.66-6.58-6.95-14.28,2.58-33.07,16.94-38.43-5.02,3.49-9.84,7.75-12.16,13.53-1.52,3.68-1.85,7.8-1.37,11.73.89,8.03,6.3,14.65,12.65,19.28-.4.15-.81.31-1.22.42ZM640.17,354.83v-24.53c10.14,2.6,19.9,5.1,30.01,7.68-13.85,18.06-6.04,18.99-30.01,16.85ZM707.62,323.2c-2.27.15-4.61.3-7.51.5.59-2.68,1.19-5.27,1.82-7.97,2.78,2.46,4.98,4.39,7.17,6.32-.17.37-.34.72-.51,1.08-.32.03-.64.05-.97.07ZM708.76,296.5c15.39,3.54,32.13,15.45,32.73,32.5-7.44-2.68-22.43-2.88-27.21-8.52-4.09-5.73-12.96-7.92-9.53-16.62.97-2.51,1.9-5.04,2.42-7.71.53.11,1.06.22,1.59.34ZM474.42,70.78c5.25-13.95,5.98-30.46,14.39-42.82,45.76-35.51,164.7-6.11,213.6,17.75,19.59,10.79,41.11,22.28,50.4,43.87-12.79,77.35-39.84,154.7-57.67,231.92-3.38,6.32-12.26,8.04-18.15,11.56-6.36,2.75-12.6-2.81-19.38-4.09,15.91-62.3,31.69-123.68,47.64-185.8,1.61-6.29.87-7.16-5.71-6.78-76.28,3.78-172.23-8.56-225.12-65.63ZM472.15,79.04c67.28,53.9,145.36,66.46,228.3,62.6-16,62.34-31.86,124.09-47.8,186.2-5.14-1.39-12.59,0-13.46-6.65-3.37-118.45-153.37-166.42-216.12-69.48,16.34-57.5,32.56-114.55,49.08-172.66ZM433.26,246.7c22.15-33.83,67.08-46.09,105.52-40.08,71.59,11.95,101.6,82.95,95.57,147.44-13.49-1.23-26.34-6.03-39.44-9.26-3.6-.98-4.78-3.17-5.17-7.11-2.27-21.34-2.69-44.31-14.03-63.08-18.5-32.05-86.77-34.14-107.88-4.21h0c-12.82,18.77-12.1,43.56-13.06,65.53-11.97-3.53-24.21-7.1-35.87-10.66-2.31-.98-5.52-.8-6.73-3.35.2-26.35,6.65-52.64,21.09-75.22ZM408.64,283.7c-3.85-4.99-7.42-9.62-11.23-14.57,4.6-5.14,9.68-7.04,17.11-6.05-1.97,6.89-3.91,13.71-5.88,20.63ZM420.4,241.86c-1.97,8.34-2.28,17.23-14.12,16.69-3.85-.15-7.84,3.89-11.8,5.97-6,3.43-18.39-2.47-25.34-2.89,6.24-12.93,30.1-22.71,51.26-19.77ZM353.1,354.9c-13.31-5.77-20.31-16.65-20.67-31.06-.44-65.81,80.42-81.67,75.31-3.96-.72.39-1.42.76-2.13,1.14-5.01-4.05-18.71-7.7-18.6-14.5.47-13.01-5.06-27.67-20.69-21.1-25.33,9.57-30.31,61.92,5.85,54.33,8.72-.94,15.69,5.55,23.94,8.69-13.71,8.58-27.7,13.08-42.99,6.46ZM384.36,400.39c1.07,29.28,1.75,58.36,1.51,87.69-8.08-8.12-20.21-22.94-18.54-33.96,9.52-32.4,15.26-66.73,26.68-98.18,2.35-2.32,5.76-3.07,8.38-4.99.24-.17,2.07.99,2.84,1.98,1.23,7.4.21,15.57.51,22.52-3.38,1.46-7.55,1.66-10.21,4.41-5.15,5.86-11.62,10.62-11.17,20.54ZM663.42,571.85c-8.66,12.35-20.29,15.49-35.04,15.71-77.85,3.17-155.07-4.38-231.64-17.98-3.03-.44-4.13-1.59-4.17-4.78-.91-55.67-1.9-111.32-3.01-166.99-.11-5.79,4.82-8.06,7.26-12.06,2.27-3.73,5.43-4.9,10.21-3.35-1.77,7.94,4.23,7.99,9.6,8.91,6.78,1.38,49.95,3.9,45.05-8.37,41.78,1.35,82.93,2.69,123.72,4.02,3.52,8.61-1.33,10.92,10.68,11.4,12.3.61,24.69.48,37.01-.13,7.12-.36,7.08-1.07,7.33-7.87,7.13,0,14.25-.11,21.36.19.66.03,1.69,2.64,1.73,4.09,1.25,56.29,1.88,112.58,3.03,168.88.07,3.37-1.22,5.62-3.13,8.33ZM751.16,403.41c-27.8,20.37-71.68,11.28-86.58-20.94,21.57-1.55,15.65,2.77,31.55,12.39,0,0,0,.01.02.01,12.68,7.64,31.08,7.77,41.48-3.81,1.12-1.13,2.06-2.81,3.77-3.03,6.2,1.17,11.55,3.74,18.81,5.63-3.24,3.55-5.73,7.18-9.04,9.75ZM793.52,368.35c-.72,14.69-16.9,20.98-29.72,20.17-.03,0-.06,0-.08,0-19.19-.62-40.04-16.09-41.29-35.93,7.33,1.41,14.1,5.28,18.94,10.96,8.07,9.19,41.15,10.19,34.58-8.51-5.27-13.94-14.72-9.67-7.82-25.51,11.32,7.87,22.36,18.17,24.97,32.31.42,2.15.58,4.35.42,6.51Z"/>
        <path class="cls-8" d="M413.91,323.74c1.66.51,3.32,1.03,4.99,1.53-1.78-.59-3.64-.99-5.37-1.71.13.07.25.14.38.18Z"/>
        <path class="cls-8" d="M521.57,205.07c-1.02-.01-2.04-.02-3.07,0,1.03-.01,2.05,0,3.07,0Z"/>
        <path class="cls-8" d="M518.5,205.06c-1.03.01-2.06.04-3.09.08,1.03-.04,2.06-.07,3.09-.08Z"/>
        <path class="cls-8" d="M521.57,205.07c2.13.02,4.24.11,6.34.26-2.1-.14-4.21-.24-6.34-.26Z"/>
        <path class="cls-8" d="M527.91,205.33c1.57.1,3.14.25,4.7.42-1.55-.17-3.13-.31-4.7-.42Z"/>
        <path class="cls-8" d="M619.31,266.44c.76,1.49,1.51,3.01,2.21,4.54-.71-1.53-1.45-3.05-2.21-4.54Z"/>
        <path class="cls-8" d="M474.59,307.73c2.9.97,5.8,1.94,8.68,2.95-2.88-1-5.78-1.97-8.68-2.95Z"/>
        <path class="cls-8" d="M500.3,317.3c-.7-.31-1.39-.62-2.09-.92,1.43.62,2.81,1.19,4.17,1.96-.69-.38-1.38-.72-2.08-1.04Z"/>
        <path class="cls-8" d="M548.95,380.63c1.7.05,3.41.08,5.11.11-18.75-.36-37.5-1.1-56.24-1.66,17.04.53,34.08,1.12,51.13,1.55Z"/>
        <path class="cls-8" d="M579.64,318.92c1.18-.11,2.34-.22,3.51-.34h0c-1.17.13-2.33.24-3.51.34Z"/>
        <path class="cls-8" d="M758.91,388.06c1.02.15,2.03.27,3.06.35-1.03-.07-2.05-.2-3.06-.35Z"/>
        <path class="cls-8" d="M761.97,388.41c1.43.12,2.87.16,4.31.13-1.45.04-2.88,0-4.31-.13Z"/>
        <path class="cls-8" d="M675.52,355.77c1.05.03,2.05,0,3.03-.11-1.6.19-3.31.1-4.96.08.65,0,1.29.02,1.93.03Z"/>
        <path class="cls-8" d="M684.87,353.63c.44-.26.88-.55,1.31-.87-.43.32-.86.61-1.31.87Z"/>
        <path class="cls-8" d="M732.57,350.52c.72.35,1.41.72,2.11,1.12-.7-.4-1.39-.76-2.11-1.12Z"/>
        <path class="cls-8" d="M738.76,354.34c.66.5,1.31,1.03,1.95,1.6-.64-.57-1.29-1.09-1.95-1.6Z"/>
        <path class="cls-8" d="M763.42,363.98c-.51.36-1.02.72-1.52,1.08-.66-.07-1.31-.15-1.96-.24.65.07,1.3.15,1.96.23.51-.36,1.02-.72,1.52-1.07Z"/>
        <path class="cls-8" d="M691.38,408.9c1.11.48,2.25.93,3.41,1.36-1.16-.41-2.3-.86-3.41-1.36Z"/>
        <path class="cls-8" d="M702.84,412.57c1.18.25,2.35.48,3.54.68-1.19-.19-2.37-.41-3.54-.68Z"/>
        <path class="cls-8" d="M707.97,413.48c1.73.23,3.47.4,5.22.51-1.75-.09-3.49-.26-5.22-.51Z"/>
        <path class="cls-8" d="M717.91,414.1c1.21,0,2.41-.07,3.62-.14-1.21.08-2.41.13-3.62.14Z"/>
        <path class="cls-8" d="M738.81,389.73c-.07.08-.14.16-.22.25.19-.21.39-.48.59-.67-.12.13-.25.27-.38.42Z"/>
        <path class="cls-8" d="M412.14,353.87h0c0,4.12-.02,8.2-.02,12.24,0-4.04,0-8.11,0-12.24Z"/>
        <path class="cls-8" d="M456.76,384.67h0c-1.02.23-2.04.45-3.06.66,1.02-.21,2.04-.43,3.06-.66Z"/>
        <path class="cls-8" d="M720.76,295.45c.1.07.21.12.31.18-.16-.1-.36-.16-.48-.31.05.04.1.09.17.13Z"/>
        <path class="cls-8" d="M724.04,297.25c.42.23.84.46,1.24.7-.94-.55-1.93-1.06-2.89-1.59.55.29,1.1.58,1.65.88Z"/>
        <path class="cls-8" d="M747.14,331.59c.05.27.12.57.23.86-.11-.29-.19-.58-.23-.86Z"/>
        <path class="cls-8" d="M687.95,381.68c.21.27.41.55.63.81-.23-.26-.43-.54-.64-.81h0Z"/>
        <path class="cls-8" d="M703.84,351.34c-.16-.25-.32-.52-.48-.77h0c.16.25.32.52.47.77Z"/>
        <path class="cls-8" d="M706.87,358.41c-.13-.52-.29-1.04-.46-1.56.18.53.34,1.04.46,1.56Z"/>
        <path class="cls-8" d="M720.77,394.62c1.14-.22,2.25-.5,3.33-.85-1.08.36-2.19.64-3.33.85Z"/>
        <path class="cls-8" d="M611.31,394.16c2.22.11,4.44.21,6.67.27-2.22-.06-4.44-.15-6.67-.27Z"/>
        <path class="cls-8" d="M621.3,394.5c1.25.02,2.5-.05,3.76-.17-2.36.26-4.72.17-7.09.1,1.11.03,2.22.05,3.33.07Z"/>
        <path class="cls-8" d="M704.75,303.87c-.33,1.06-.55,2.08-.62,3.06.07-.98.28-2.01.62-3.06Z"/>
        <path class="cls-8" d="M705.43,302.03c-.26.62-.49,1.23-.68,1.84.18-.6.41-1.22.68-1.84Z"/>
        <path class="cls-8" d="M705.7,301.4c-.09.21-.19.42-.27.62.08-.22.18-.44.28-.66,0,.02,0,.03,0,.04Z"/>
        <path class="cls-8" d="M717.29,323.25c1.51.39,3.02.76,4.54,1.14-1.77-.56-3.74-.64-5.37-1.55.26.19.54.34.83.42Z"/>
        <path class="cls-8" d="M369.25,334.37h0c-.82.33-1.63.57-2.45.72.81-.16,1.63-.39,2.44-.72Z"/>
        <path class="cls-8" d="M660.32,382.92c-6.76-.41-13.52-.82-20.29-1.23-.01.15-.02.3-.03.45l20.32.78Z"/>
        <path class="cls-8" d="M700.1,323.7c.07-.32.14-.63.22-.94-.07.31-.13.62-.21.94h-.01Z"/>
        <path class="cls-8" d="M708.6,323.12h0c-.32.03-.65.05-.97.08.33-.03.65-.05.97-.08Z"/>
        <path class="cls-8" d="M658.59,398.41c-9.18,10.41-5.64,25.14-6.53,37.91-.46,38.8-1.2,77.6-1.83,116.4-.43,0-.85,0-1.28,0-.62-47.29-1.25-94.59-1.88-142.35-80.72.55-161.27.07-241.12-13.41,35.99,2.24,72,4.62,108.03,6.23,41.58,1.9,83.19,2.94,124.88,2.25,8.08.59,13.61-3.36,19.6-8.1.07.5.26.92.14,1.06Z"/>
        <path class="cls-8" d="M738.12,102.1c-83.4,23.17-177.74,3.86-245.66-48.68,69.6,44.93,154.45,65.7,236.43,48.83,7.81-1.54,23.4-5.85,14.53-16.03-57.14-54.73-152.91-71.6-229.31-62.17-31.04,6.75-5.95,24.51,7.81,34.47,37.45,26.58,91.14,33.52,133.51,39.01-39.04-.11-88.78-7.96-124.15-29.29-77.81-46.37-6.3-52.58,41.9-50.87,55.46,3.69,111.32,17.13,156.76,50.53,9.98,7.64,29.31,27.97,8.17,34.19Z"/>
        <path class="cls-8" d="M717.17,87.69c-57.83,11.87-155.75-2.32-198.58-45.1,42.14,36.14,147.34,54.59,200.33,38.72-49.63-41.49-116.52-48.12-178.32-55.31,60.34-4.46,117.22,10.93,169.12,41.41,7.05,3.87,21.39,15.43,7.46,20.28Z"/>
        <path class="cls-8" d="M694.64,82.34c-48.54,7.89-98.07-4.69-142.69-23.82-44.22-22.5-21.69-26.32,12.93-24.84,25.48,2.54,52.03,6.71,75.66,15.95-27.38-5.08-54.86-9.82-82.44-13.55-9.22-.55-19.26-1.01-28.13,2.23-.17.49-.33.97-.5,1.46,41.06,28.28,118.17,49.32,167.32,38.64-6.49-8.39-15.57-10.98-23.3-15.67,6.23,1.19,36.76,12.6,21.15,19.61Z"/>
      </g>
      <g>
        <path class="cls-2" d="M18.04,536.92v14.23h-3.48v-14.23h3.48Z"/>
        <path class="cls-2" d="M35.78,544.33v6.81h-3.29v-5.91c0-1.16-.85-1.4-1.38-1.4s-1.36.26-1.36,1.4v5.91h-3.31v-5.91c0-1.16-.83-1.4-1.36-1.4s-1.38.26-1.38,1.4v5.91h-3.31v-10.3h3.31v.79c.53-.59,1.34-1.04,2.54-1.04,1.42,0,2.36.55,2.91,1.38.61-.75,1.54-1.38,2.97-1.38,2.52,0,3.68,1.67,3.68,3.74Z"/>
        <path class="cls-2" d="M47.04,544.74v6.4h-3.29v-.96c-.55.79-1.77,1.22-2.83,1.22-1.38,0-3.52-.53-3.52-3.03,0-3.42,4.43-3.42,5.12-3.42h1.22v-.04c0-.98-.49-1.67-1.69-1.67-.83,0-1.54.33-1.95.65l-2.15-1.46c1.12-1.18,2.66-1.85,4.63-1.85,3.29,0,4.45,1.69,4.45,4.15ZM43.74,546.61h-.26c-1.65,0-2.74.3-2.74,1.34,0,.75.61,1.04,1.32,1.04s1.4-.35,1.69-.73v-1.65Z"/>
        <path class="cls-2" d="M59.8,540.84v9.41c0,2.93-2.11,5-5.77,5-2.24,0-4.21-.87-5-2.15l2.46-1.46c.33.49,1.22.96,2.4.96,2.01,0,2.62-1.1,2.62-2.7v-.47c-.57.73-1.46,1.26-2.89,1.26-3.15,0-4.96-2.34-4.96-5.04s1.79-5.04,4.96-5.04c1.4,0,2.32.57,2.89,1.36v-1.12h3.29ZM56.38,545.63c0-1.36-.96-2.2-2.19-2.2-1.36,0-2.2.93-2.2,2.2s.83,2.2,2.2,2.2c1.24,0,2.19-.83,2.19-2.2Z"/>
        <path class="cls-2" d="M72.07,547h-7.44c.35,1.2,1.32,1.75,2.58,1.75,1.06,0,1.79-.51,2.11-.89l2.32,1.38c-.83,1.28-2.42,2.17-4.43,2.17-3.48,0-5.79-2.2-5.79-5.41s2.38-5.41,5.32-5.41,5.73,2.07,5.33,6.4ZM69.08,545c-.24-1.2-1.1-1.75-2.24-1.75-1.04,0-1.91.61-2.22,1.75h4.45Z"/>
        <path class="cls-2" d="M83.43,546.73l2.91,1.91c-1.28,1.71-3.31,2.76-5.75,2.76-4.21,0-7.24-3.15-7.24-7.38s3.03-7.36,7.24-7.36c2.44,0,4.47,1.06,5.75,2.74l-2.91,1.91c-.61-.77-1.56-1.3-2.85-1.3-2.48,0-3.74,1.99-3.74,4s1.26,4.02,3.74,4.02c1.28,0,2.24-.53,2.85-1.32Z"/>
        <path class="cls-2" d="M94.3,540.59v3.54c-2.93-.45-3.25,1.22-3.25,2.95v4.06h-3.29v-10.3h3.29v1.57c.73-1.16,2.03-1.81,3.25-1.81Z"/>
        <path class="cls-2" d="M106.21,540.84l-5.65,14.23h-3.35l1.89-4.53-4.09-9.7h3.5l2.07,5.87,2.11-5.87h3.52Z"/>
        <path class="cls-2" d="M118.69,546c0,2.7-1.75,5.41-4.94,5.41-1.4,0-2.32-.53-2.91-1.26v4.92h-3.31v-14.23h3.31v1.02c.59-.73,1.5-1.26,2.91-1.26,3.19,0,4.94,2.7,4.94,5.41ZM115.36,546c0-1.28-.83-2.21-2.22-2.21-1.24,0-2.2.83-2.2,2.21s.96,2.2,2.2,2.2c1.38,0,2.22-.93,2.22-2.2Z"/>
        <path class="cls-2" d="M124.28,543.56v3.25c0,1.08.39,1.63,1.4,1.63.26,0,.47-.04.63-.06v2.76c-.35.12-.77.18-1.42.18-3.17,0-3.9-2.15-3.9-4.17v-3.6h-1.28v-2.72h1.28v-2.15h3.29v2.15h2.03v2.72h-2.03Z"/>
      </g>
    </g>
  </g>
</svg>