<?xml version="1.0" encoding="UTF-8"?>
<svg id="Capa_1" xmlns="http://www.w3.org/2000/svg" version="1.1" xmlns:xlink="http://www.w3.org/1999/xlink" viewBox="0 0 800 600">
  <!-- Generator: Adobe Illustrator 29.2.1, SVG Export Plug-In . SVG Version: 2.1.0 Build 116)  -->
  <defs>
    <style>
      .st0 {
        opacity: 0;
      }

      .st1, .st2, .st3, .st4 {
        fill: #fff;
      }

      .st5 {
        fill: #1e1e1e;
      }

      .st6 {
        opacity: .6;
      }

      .st2 {
        opacity: .2;
      }

      .st2, .st7, .st3, .st4 {
        isolation: isolate;
      }

      .st8 {
        fill: #140f1b;
      }

      .st9 {
        fill: #efefef;
      }

      .st3 {
        font-family: ArialMT, Arial;
        font-size: 14.4px;
      }

      .st10 {
        fill: #f4f4f4;
      }

      .st4 {
        opacity: .8;
      }
    </style>
  </defs>
  <rect class="st5" width="800" height="600"/>
  <rect class="st1" width="800" height="600"/>
  <rect class="st8" width="800" height="600"/>
  <path class="st2" d="M19.7,568h-.9c0-.2-.1-.5-.3-.7-.1-.2-.3-.3-.5-.5-.2-.1-.4-.2-.6-.3-.2,0-.5,0-.7,0-.4,0-.8.1-1.2.3-.4.2-.6.5-.9,1s-.3,1-.3,1.6.1,1.2.3,1.6c.2.4.5.8.9,1,.4.2.8.3,1.2.3s.5,0,.7,0c.2,0,.4-.2.6-.3.2-.1.3-.3.5-.5.1-.2.2-.4.3-.7h.9c0,.4-.2.7-.4,1s-.4.5-.6.8c-.3.2-.5.4-.9.5-.3,0-.7.2-1,.2-.6,0-1.2-.2-1.6-.5s-.9-.7-1.1-1.3c-.3-.6-.4-1.2-.4-2s.1-1.4.4-2,.7-1,1.1-1.3,1-.5,1.6-.5.7,0,1,.2c.3,0,.6.3.9.5.3.2.5.5.6.8.2.3.3.6.4,1h0ZM21,573v-5.5h.8v.8h0c.1-.3.3-.5.5-.7s.5-.2.9-.2h.2c0,0,.2,0,.2,0v.8s0,0-.2,0c-.1,0-.2,0-.3,0-.3,0-.5,0-.7.2s-.4.3-.5.5c-.1.2-.2.4-.2.7v3.5h-.8,0ZM26.9,573.1c-.5,0-1-.1-1.4-.3-.4-.2-.7-.6-.9-1-.2-.4-.3-.9-.3-1.5s.1-1,.3-1.5.5-.8.9-1,.8-.4,1.3-.4.6,0,.8.1.5.2.8.5.4.5.5.8c.1.3.2.8.2,1.3v.3h-4.2v-.7h3.4c0-.3,0-.6-.2-.8s-.3-.4-.5-.6c-.2-.1-.5-.2-.8-.2s-.6,0-.9.2c-.2.2-.4.4-.6.6s-.2.5-.2.8v.5c0,.4,0,.8.2,1,.1.3.3.5.6.7s.5.2.9.2.4,0,.6,0,.3-.2.5-.3c.1-.1.2-.3.3-.5l.8.2c0,.3-.2.5-.4.7-.2.2-.5.4-.8.5-.3.1-.6.2-1,.2h0ZM32,573.1c-.4,0-.7,0-.9-.2s-.5-.3-.7-.6-.2-.5-.2-.9,0-.6.2-.8c.1-.2.3-.3.5-.5.2-.1.4-.2.7-.2s.5,0,.8-.1c.3,0,.6,0,.8,0,.2,0,.4,0,.5-.1,0,0,.2-.2.2-.3h0c0-.4,0-.7-.3-.9-.2-.2-.5-.3-.9-.3s-.7,0-.9.3c-.2.2-.4.4-.5.6l-.8-.3c.1-.3.3-.6.6-.8.2-.2.5-.3.8-.4.3,0,.6-.1.8-.1s.4,0,.6,0c.2,0,.5.1.7.2.2.1.4.3.5.6s.2.6.2,1v3.6h-.8v-.7h0c0,.1-.2.2-.3.4-.1.1-.3.2-.5.3-.2,0-.5.1-.8.1h0ZM32.2,572.4c.3,0,.6,0,.8-.2s.4-.3.5-.5.2-.4.2-.7v-.8s-.1,0-.2.1c-.1,0-.3,0-.4,0-.2,0-.3,0-.5,0s-.3,0-.3,0c-.2,0-.4,0-.6.1s-.3.2-.5.3c-.1.1-.2.3-.2.5s.1.5.3.7c.2.2.5.2.8.2h0ZM38.4,567.5v.7h-2.8v-.7h2.8ZM36.4,566.2h.8v5.2c0,.2,0,.4,0,.5,0,.1.2.2.3.2s.2,0,.3,0,.2,0,.2,0,.1,0,.1,0l.2.8c0,0-.1,0-.2,0,0,0-.2,0-.4,0-.2,0-.5,0-.7-.2-.2,0-.4-.3-.6-.5-.2-.2-.2-.5-.2-.8v-5.4h0ZM41.9,573.1c-.5,0-1-.1-1.4-.3s-.7-.6-.9-1c-.2-.4-.3-.9-.3-1.5s0-1,.3-1.5c.2-.4.5-.8.9-1s.8-.4,1.3-.4.6,0,.8.1.5.2.8.5.4.5.5.8.2.8.2,1.3v.3h-4.2v-.7h3.3c0-.3,0-.6-.2-.8-.1-.2-.3-.4-.5-.6-.2-.1-.5-.2-.8-.2s-.6,0-.9.2c-.2.2-.4.4-.6.6s-.2.5-.2.8v.5c0,.4,0,.8.2,1,.2.3.3.5.6.7s.5.2.9.2.4,0,.6,0,.3-.2.5-.3c.1-.1.2-.3.3-.5l.8.2c0,.3-.2.5-.4.7-.2.2-.5.4-.8.5s-.6.2-1,.2h0ZM47.5,573.1c-.5,0-.9-.1-1.2-.3s-.6-.6-.8-1-.3-.9-.3-1.5,0-1.1.3-1.5c.2-.4.5-.8.8-1s.8-.3,1.2-.3.6,0,.8.2c.2.1.4.2.5.4s.2.3.3.4h0v-2.7h.8v7.3h-.8v-.8h0c0,0-.2.2-.3.4-.1.2-.3.3-.5.4-.2.1-.5.2-.8.2h0ZM47.6,572.4c.3,0,.6,0,.8-.3.2-.2.4-.4.5-.7.1-.3.2-.7.2-1.1s0-.8-.2-1.1c-.1-.3-.3-.5-.5-.7-.2-.2-.5-.3-.9-.3s-.7,0-.9.3c-.2.2-.4.4-.5.7s-.2.7-.2,1,0,.7.2,1.1.3.6.5.8c.2.2.5.3.9.3h0ZM54.6,573v-7.3h.8v2.7h0c0,0,.2-.2.3-.4.1-.2.3-.3.5-.4s.5-.2.8-.2.9.1,1.2.3c.3.2.6.5.8,1,.2.4.3.9.3,1.5s0,1.1-.3,1.5c-.2.4-.5.8-.8,1s-.8.3-1.2.3-.6,0-.8-.2c-.2-.1-.4-.2-.5-.4-.1-.2-.2-.3-.3-.4h0v.8h-.8ZM55.4,570.3c0,.4,0,.8.2,1.1.1.3.3.6.5.7.2.2.5.3.8.3s.6,0,.9-.3.4-.4.5-.8c.1-.3.2-.7.2-1.1s0-.7-.2-1-.3-.6-.5-.7c-.2-.2-.5-.3-.9-.3s-.6,0-.9.3-.4.4-.5.7c-.1.3-.2.7-.2,1.1h0ZM61,575c-.1,0-.3,0-.4,0s-.2,0-.2,0l.2-.7c.2,0,.4,0,.5,0s.3,0,.4-.2c.1-.1.2-.3.3-.6l.2-.4-2-5.5h.9l1.5,4.3h0l1.5-4.3h.9l-2.3,6.2c0,.3-.2.5-.4.7-.2.2-.3.3-.5.4-.2,0-.4.1-.7.1h0ZM69,573v-7.3h2.5c.5,0,.9,0,1.2.3s.6.4.7.7c.2.3.2.6.2,1s0,.6-.2.8-.2.4-.4.5-.4.2-.6.3h0c.2,0,.4.2.7.3s.4.3.6.6c.2.3.2.6.2,1s0,.7-.2,1-.4.5-.8.7-.8.3-1.4.3h-2.6,0ZM69.9,572.2h1.8c.6,0,1-.1,1.2-.3.2-.2.4-.5.4-.8s0-.5-.2-.7c-.1-.2-.3-.4-.5-.5-.2-.1-.5-.2-.8-.2h-1.8v2.5h0ZM69.9,568.9h1.6c.3,0,.5,0,.7-.2.2,0,.4-.2.5-.4.1-.2.2-.4.2-.7s-.1-.6-.3-.8-.6-.3-1.1-.3h-1.7v2.4h0ZM75.4,573v-5.5h.8v.8h0c0-.3.3-.5.5-.7s.6-.2.9-.2h.2c0,0,.2,0,.2,0v.8s0,0-.2,0c0,0-.2,0-.3,0-.3,0-.5,0-.7.2s-.4.3-.5.5c-.1.2-.2.4-.2.7v3.5h-.8ZM82.5,570.8v-3.2h.8v5.5h-.8v-.9h0c-.1.3-.3.5-.6.7-.3.2-.6.3-1,.3s-.6,0-.9-.2c-.3-.2-.5-.4-.6-.7s-.2-.7-.2-1.2v-3.5h.8v3.4c0,.4.1.7.3,1,.2.2.5.3.9.3s.4,0,.6-.2.4-.3.6-.5.2-.5.2-.8h0ZM85.7,569.7v3.3h-.8v-5.5h.8v.8h0c.1-.3.3-.5.6-.7s.6-.3,1-.3.7,0,1,.2c.3.2.5.4.7.7.2.3.2.7.2,1.2v3.5h-.8v-3.4c0-.4-.1-.8-.3-1s-.5-.4-.9-.4-.5,0-.7.2-.4.3-.5.5c-.1.2-.2.5-.2.8h0ZM93,573.1c-.5,0-.9-.1-1.3-.3-.4-.2-.7-.6-.9-1s-.3-.9-.3-1.5,0-1.1.3-1.5c.2-.4.5-.8.9-1,.4-.2.8-.3,1.3-.3s.9.1,1.3.3.7.6.9,1c.2.4.3.9.3,1.5s0,1.1-.3,1.5-.5.8-.9,1-.8.3-1.3.3ZM93,572.4c.4,0,.7,0,.9-.3s.4-.4.5-.8c.1-.3.2-.7.2-1s0-.7-.2-1c-.1-.3-.3-.6-.5-.8-.2-.2-.6-.3-.9-.3s-.7,0-.9.3c-.2.2-.4.5-.5.8-.1.3-.2.7-.2,1s0,.7.2,1c.1.3.3.6.5.8.2.2.6.3.9.3ZM99.6,573v-7.3h2.5c.6,0,1,0,1.4.3.4.2.6.5.8.8.2.3.3.7.3,1.2s0,.8-.3,1.1c-.2.3-.4.6-.8.8-.4.2-.8.3-1.4.3h-2v-.8h2c.4,0,.7,0,.9-.2.2-.1.4-.3.5-.5.1-.2.2-.5.2-.8s0-.5-.2-.8c-.1-.2-.3-.4-.5-.5-.2-.1-.6-.2-.9-.2h-1.6v6.5h-.9ZM103.1,569.7l1.8,3.3h-1l-1.8-3.3h1,0ZM107.5,573.1c-.3,0-.7,0-.9-.2s-.5-.3-.7-.6-.2-.5-.2-.9,0-.6.2-.8c.1-.2.3-.3.5-.5.2-.1.4-.2.7-.2s.5,0,.8-.1c.3,0,.6,0,.8,0,.2,0,.4,0,.5-.1,0,0,.1-.2.1-.3h0c0-.4,0-.7-.3-.9-.2-.2-.5-.3-.9-.3s-.7,0-.9.3c-.2.2-.4.4-.5.6l-.8-.3c.1-.3.3-.6.6-.8.2-.2.5-.3.8-.4.3,0,.6-.1.8-.1s.4,0,.6,0c.2,0,.4.1.7.2.2.1.4.3.5.6s.2.6.2,1v3.6h-.8v-.7h0c0,.1-.2.2-.3.4s-.3.2-.5.3c-.2,0-.5.1-.8.1h0ZM107.7,572.4c.3,0,.6,0,.8-.2.2-.1.4-.3.5-.5.1-.2.2-.4.2-.7v-.8s-.1,0-.2.1c-.1,0-.3,0-.4,0-.2,0-.3,0-.4,0-.1,0-.3,0-.3,0-.2,0-.4,0-.6.1s-.3.2-.5.3c-.1.1-.2.3-.2.5s.1.5.3.7c.2.2.5.2.8.2h0ZM111.6,573v-5.5h.8v.8h0c.1-.3.3-.5.6-.7s.6-.2.9-.2.7,0,.9.2.4.4.6.7h0c.1-.3.3-.5.6-.7.3-.2.6-.2,1-.2s.9.2,1.2.5c.3.3.5.8.5,1.4v3.7h-.8v-3.7c0-.4-.1-.7-.3-.9s-.5-.3-.8-.3-.7.1-.9.3-.3.5-.3.9v3.5h-.8v-3.7c0-.3,0-.6-.3-.8-.2-.2-.5-.3-.8-.3s-.4,0-.6.2-.3.3-.4.5c-.1.2-.2.4-.2.7v3.4h-.8ZM122.5,573.1c-.5,0-.9-.1-1.3-.3-.4-.2-.7-.6-.9-1s-.3-.9-.3-1.5,0-1.1.3-1.5c.2-.4.5-.8.9-1,.4-.2.8-.3,1.3-.3s.9.1,1.3.3.7.6.9,1c.2.4.3.9.3,1.5s0,1.1-.3,1.5-.5.8-.9,1c-.4.2-.8.3-1.3.3ZM122.5,572.4c.4,0,.7,0,.9-.3s.4-.4.5-.8c.1-.3.2-.7.2-1s0-.7-.2-1c-.1-.3-.3-.6-.5-.8-.2-.2-.6-.3-.9-.3s-.7,0-.9.3c-.2.2-.4.5-.5.8-.1.3-.2.7-.2,1s0,.7.2,1c.1.3.3.6.5.8.2.2.6.3.9.3ZM130.1,568.8l-.8.2c0-.1-.1-.2-.2-.4,0-.1-.2-.2-.4-.3-.2,0-.4-.1-.6-.1s-.6,0-.8.2c-.2.2-.3.3-.3.6s0,.4.2.5.4.2.7.3l.8.2c.5.1.9.3,1.1.5.2.2.4.5.4.9s0,.6-.3.8c-.2.2-.4.4-.7.6-.3.1-.7.2-1.1.2s-1-.1-1.4-.4-.6-.6-.7-1.1l.8-.2c0,.3.2.5.4.7.2.2.5.2.8.2s.7,0,.9-.2.4-.4.4-.6,0-.3-.2-.5c-.1-.1-.3-.2-.6-.3l-.9-.2c-.5-.1-.9-.3-1.1-.5-.2-.2-.3-.6-.3-.9s0-.6.3-.8c.2-.2.4-.4.7-.6.3-.1.7-.2,1-.2.5,0,1,.1,1.3.4s.5.5.7.9h0Z"/>
  <rect class="st4" x="136" y="6.4" width="659.9" height="587.3" rx="9.5" ry="9.5"/>
  <path class="st2" d="M18.2,582.5l-2,5.5h-.9l-2-5.5h.9l1.5,4.3h0l1.5-4.3h.9,0ZM21.4,588.1c-.5,0-1-.1-1.4-.3-.4-.2-.7-.6-.9-1-.2-.4-.3-.9-.3-1.5s.1-1,.3-1.5.5-.8.9-1,.8-.4,1.3-.4.6,0,.8.1.5.2.8.5.4.5.5.8c.1.3.2.8.2,1.3v.3h-4.2v-.7h3.4c0-.3,0-.6-.2-.8s-.3-.4-.5-.6c-.2-.1-.5-.2-.8-.2s-.6,0-.9.2c-.2.2-.4.4-.6.6s-.2.5-.2.8v.5c0,.4,0,.8.2,1,.1.3.3.5.6.7s.5.2.9.2.4,0,.6,0,.3-.2.5-.3c.1-.1.2-.3.3-.5l.8.2c0,.3-.2.5-.4.7-.2.2-.5.4-.8.5-.3.1-.6.2-1,.2ZM25,588v-5.5h.8v.8h0c.1-.3.3-.5.5-.7s.5-.2.9-.2h.2c0,0,.2,0,.2,0v.8s0,0-.2,0c-.1,0-.2,0-.3,0-.3,0-.5,0-.7.2s-.4.3-.5.5c-.1.2-.2.4-.2.7v3.5h-.8,0ZM32.5,583.8l-.8.2c0-.1-.1-.2-.2-.4,0-.1-.2-.2-.4-.3-.2,0-.4-.1-.6-.1s-.6,0-.8.2c-.2.2-.3.3-.3.6s0,.4.2.5.4.2.7.3l.8.2c.5.1.9.3,1.1.5.2.2.4.5.4.9s0,.6-.3.8-.4.4-.8.6-.7.2-1.1.2-1-.1-1.4-.4c-.4-.2-.6-.6-.7-1.1l.8-.2c0,.3.2.5.4.7.2.2.5.2.8.2s.7,0,.9-.2.4-.4.4-.6,0-.3-.2-.5c-.1-.1-.3-.2-.6-.3l-.9-.2c-.5-.1-.9-.3-1.1-.5s-.4-.6-.4-.9,0-.6.3-.8.4-.4.7-.6.6-.2,1-.2c.5,0,1,.1,1.3.4s.5.5.7.9h0ZM35.5,588.1c-.3,0-.7,0-.9-.2s-.5-.3-.7-.6c-.2-.2-.2-.5-.2-.9s0-.6.2-.8c.1-.2.3-.3.5-.5.2-.1.4-.2.7-.2s.5,0,.8-.1c.3,0,.6,0,.8,0,.2,0,.4,0,.5-.1,0,0,.2-.2.2-.3h0c0-.4,0-.7-.3-.9-.2-.2-.5-.3-.9-.3s-.7,0-.9.3c-.2.2-.4.4-.5.6l-.8-.3c.1-.3.3-.6.6-.8.2-.2.5-.3.8-.4.3,0,.6-.1.8-.1s.4,0,.6,0c.2,0,.5.1.7.2.2.1.4.3.5.6s.2.6.2,1v3.6h-.8v-.7h0c0,.1-.2.2-.3.4-.1.1-.3.2-.5.3-.2,0-.5.1-.8.1h0ZM35.6,587.4c.3,0,.6,0,.8-.2s.4-.3.5-.5.2-.4.2-.7v-.8s-.1,0-.2.1c-.1,0-.3,0-.4,0-.2,0-.3,0-.5,0s-.3,0-.3,0c-.2,0-.4,0-.6.1-.2,0-.3.2-.5.3-.1.1-.2.3-.2.5s.1.5.3.7c.2.2.5.2.8.2h0ZM35,581.9h-.7c0-.4,0-.7.3-.9.2-.2.5-.3.8-.3s.3,0,.4,0c0,0,.2,0,.3.2s.2.1.3.2c0,0,.2,0,.3,0s.2,0,.3-.2c0,0,.1-.2.1-.4h.6c0,.4,0,.7-.3.9-.2.2-.5.3-.8.3s-.3,0-.4,0c-.1,0-.2,0-.3-.2,0,0-.2-.1-.3-.2s-.2,0-.3,0-.2,0-.3.2c0,0-.1.2-.1.4h0ZM41.8,588.1c-.5,0-.9-.1-1.3-.3-.4-.2-.7-.6-.9-1s-.3-.9-.3-1.5,0-1.1.3-1.5c.2-.4.5-.8.9-1,.4-.2.8-.3,1.3-.3s.9.1,1.3.3c.4.2.7.6.9,1,.2.4.3.9.3,1.5s0,1.1-.3,1.5c-.2.4-.5.8-.9,1-.4.2-.8.3-1.3.3ZM41.8,587.4c.4,0,.7,0,.9-.3.2-.2.4-.4.5-.8.1-.3.2-.7.2-1s0-.7-.2-1-.3-.6-.5-.8c-.2-.2-.5-.3-.9-.3s-.7,0-.9.3c-.2.2-.4.5-.5.8-.1.3-.2.7-.2,1s0,.7.2,1c.1.3.3.6.5.8.2.2.5.3.9.3ZM50.9,580.7v7.3h-.9v-6.3h0l-1.8,1.2v-.9l1.8-1.2h.9ZM53.2,588.1c-.2,0-.3,0-.5-.2s-.2-.3-.2-.5,0-.3.2-.5c.1-.1.3-.2.5-.2s.3,0,.5.2c.1.1.2.3.2.5s0,.2,0,.3c0,0-.1.2-.2.2,0,0-.2,0-.3,0ZM57.4,588.1c-.5,0-1-.2-1.4-.4-.4-.3-.7-.7-.9-1.3-.2-.6-.3-1.2-.3-2s0-1.5.3-2,.5-1,.9-1.3c.4-.3.8-.4,1.4-.4s1,.2,1.4.4.7.7.9,1.3c.2.6.3,1.2.3,2s0,1.5-.3,2c-.2.6-.5,1-.9,1.3-.4.3-.8.4-1.4.4ZM57.4,587.3c.5,0,.9-.3,1.2-.8.3-.5.4-1.2.4-2.2s0-1.2-.2-1.6-.3-.8-.6-1c-.2-.2-.5-.3-.9-.3-.5,0-.9.3-1.2.8-.3.5-.4,1.2-.4,2.2s0,1.2.2,1.6.3.8.6,1,.5.3.9.3h0ZM64.1,588v-.6l2.4-2.6c.3-.3.5-.6.7-.8s.3-.4.4-.7c0-.2.1-.4.1-.6s0-.5-.2-.7c-.1-.2-.3-.3-.5-.4s-.4-.2-.7-.2-.5,0-.7.2c-.2.1-.4.3-.5.5-.1.2-.2.5-.2.7h-.8c0-.4,0-.8.3-1.1.2-.3.5-.6.8-.8.3-.2.7-.3,1.2-.3s.8,0,1.1.3c.3.2.6.4.8.7.2.3.3.7.3,1s0,.5-.2.8-.3.5-.5.8c-.2.3-.6.7-1,1.1l-1.6,1.8h0c0,0,3.4,0,3.4,0v.8h-4.6,0ZM72.5,588.1c-.5,0-1-.2-1.4-.4-.4-.3-.7-.7-.9-1.3-.2-.6-.3-1.2-.3-2s0-1.5.3-2c.2-.6.5-1,.9-1.3.4-.3.8-.4,1.4-.4s1,.2,1.4.4.7.7.9,1.3c.2.6.3,1.2.3,2s0,1.5-.3,2c-.2.6-.5,1-.9,1.3-.4.3-.8.4-1.4.4ZM72.5,587.3c.5,0,.9-.3,1.2-.8.3-.5.4-1.2.4-2.2s0-1.2-.2-1.6-.3-.8-.6-1-.6-.3-.9-.3c-.5,0-.9.3-1.2.8-.3.5-.4,1.2-.4,2.2s0,1.2.2,1.6.3.8.6,1,.6.3.9.3h0ZM76.4,588v-.6l2.4-2.6c.3-.3.5-.6.7-.8s.3-.4.4-.7c0-.2.1-.4.1-.6s0-.5-.2-.7c-.1-.2-.3-.3-.5-.4s-.4-.2-.7-.2-.5,0-.7.2c-.2.1-.4.3-.5.5-.1.2-.2.5-.2.7h-.8c0-.4,0-.8.3-1.1.2-.3.5-.6.8-.8.3-.2.7-.3,1.2-.3s.8,0,1.1.3c.3.2.6.4.8.7.2.3.3.7.3,1s0,.5-.2.8-.3.5-.5.8c-.2.3-.6.7-1,1.1l-1.6,1.8h0c0,0,3.4,0,3.4,0v.8h-4.6,0ZM84.7,588.1c-.4,0-.8,0-1.1-.2s-.6-.4-.8-.7-.3-.6-.3-1h.8c0,.3.2.6.4.8.3.2.6.3,1,.3s.6,0,.8-.2.4-.3.6-.6c.1-.2.2-.5.2-.8s0-.6-.2-.8-.3-.5-.6-.6-.5-.2-.8-.2-.4,0-.7,0c-.2,0-.4.2-.6.3h-.8c0,0,.4-3.7.4-3.7h3.8v.8h-3l-.2,2.2h0c.2-.1.3-.2.6-.3s.5-.1.7-.1c.4,0,.8.1,1.2.3.3.2.6.5.8.9s.3.8.3,1.3,0,.9-.3,1.2-.5.7-.8.9c-.4.2-.8.3-1.2.3h0Z"/>
  <g>
    <path class="st1" d="M18,536.9v14.2h-3.5v-14.2h3.5Z"/>
    <path class="st1" d="M35.8,544.3v6.8h-3.3v-5.9c0-1.2-.9-1.4-1.4-1.4s-1.4.3-1.4,1.4v5.9h-3.3v-5.9c0-1.2-.8-1.4-1.4-1.4s-1.4.3-1.4,1.4v5.9h-3.3v-10.3h3.3v.8c.5-.6,1.3-1,2.5-1s2.4.5,2.9,1.4c.6-.8,1.5-1.4,3-1.4,2.5,0,3.7,1.7,3.7,3.7h0Z"/>
    <path class="st1" d="M47,544.7v6.4h-3.3v-1c-.5.8-1.8,1.2-2.8,1.2s-3.5-.5-3.5-3,4.4-3.4,5.1-3.4h1.2c0-1-.5-1.7-1.7-1.7s-1.5.3-2,.7l-2.2-1.5c1.1-1.2,2.7-1.8,4.6-1.8,3.3,0,4.5,1.7,4.5,4.2h0ZM43.7,546.6h-.3c-1.7,0-2.7.3-2.7,1.3s.6,1,1.3,1,1.4-.3,1.7-.7v-1.7h0Z"/>
    <path class="st1" d="M59.8,540.8v9.4c0,2.9-2.1,5-5.8,5s-4.2-.9-5-2.2l2.5-1.5c.3.5,1.2,1,2.4,1,2,0,2.6-1.1,2.6-2.7v-.5c-.6.7-1.5,1.3-2.9,1.3-3.2,0-5-2.3-5-5s1.8-5,5-5,2.3.6,2.9,1.4v-1.1h3.3ZM56.4,545.6c0-1.4-1-2.2-2.2-2.2s-2.2.9-2.2,2.2.8,2.2,2.2,2.2,2.2-.8,2.2-2.2Z"/>
    <path class="st1" d="M72.1,547h-7.4c.3,1.2,1.3,1.8,2.6,1.8s1.8-.5,2.1-.9l2.3,1.4c-.8,1.3-2.4,2.2-4.4,2.2-3.5,0-5.8-2.2-5.8-5.4s2.4-5.4,5.3-5.4,5.7,2.1,5.3,6.4h0ZM69.1,545c-.2-1.2-1.1-1.8-2.2-1.8s-1.9.6-2.2,1.8h4.5Z"/>
    <path class="st1" d="M83.4,546.7l2.9,1.9c-1.3,1.7-3.3,2.8-5.8,2.8-4.2,0-7.2-3.2-7.2-7.4s3-7.4,7.2-7.4,4.5,1.1,5.8,2.7l-2.9,1.9c-.6-.8-1.6-1.3-2.8-1.3-2.5,0-3.7,2-3.7,4s1.3,4,3.7,4,2.2-.5,2.8-1.3h0Z"/>
    <path class="st1" d="M94.3,540.6v3.5c-2.9-.5-3.2,1.2-3.2,3v4.1h-3.3v-10.3h3.3v1.6c.7-1.2,2-1.8,3.2-1.8h0Z"/>
    <path class="st1" d="M106.2,540.8l-5.7,14.2h-3.3l1.9-4.5-4.1-9.7h3.5l2.1,5.9,2.1-5.9h3.5Z"/>
    <path class="st1" d="M118.7,546c0,2.7-1.8,5.4-4.9,5.4s-2.3-.5-2.9-1.3v4.9h-3.3v-14.2h3.3v1c.6-.7,1.5-1.3,2.9-1.3,3.2,0,4.9,2.7,4.9,5.4h0ZM115.4,546c0-1.3-.8-2.2-2.2-2.2s-2.2.8-2.2,2.2,1,2.2,2.2,2.2,2.2-.9,2.2-2.2Z"/>
    <path class="st1" d="M124.3,543.6v3.2c0,1.1.4,1.6,1.4,1.6s.5,0,.6,0v2.8c-.3.1-.8.2-1.4.2-3.2,0-3.9-2.2-3.9-4.2v-3.6h-1.3v-2.7h1.3v-2.2h3.3v2.2h2v2.7h-2Z"/>
  </g>
  <g class="st6">
    <image width="145" height="136" transform="translate(523 95)" xlink:href="bg2-1.png"/>
  </g>
  <rect class="st9" x="167.4" y="148" width="252.6" height="34.2" rx="16.1" ry="16.1"/>
  <image width="326" height="108" transform="translate(131 111)" xlink:href="bg2-2.png"/>
  <g>
    <path class="st10" d="M75.8,51.1v20.9c-.2.7-.7,1-1.3,1.3-2.5,1.3-5.6,2-8.2,3.3v-3.8h-8.2c-.3,0-1.4-1.1-1.4-1.4v-2.4h1.9v1.9h7.7v-15.2l7.5-3.9h-15.2v1.9h-1.9v-2.4c0-.1.5-.8.7-1,.4-.3.7-.4,1.2-.5,4.9-.5,10.6.4,15.6,0,.8,0,1.4.6,1.6,1.3h0Z"/>
    <polygon class="st10" points="64.4 59.3 64.4 63.2 56.8 63.2 56.8 66.8 51 61.2 56.8 55.7 56.8 59.3 64.4 59.3"/>
  </g>
  <g class="st7">
    <text class="st3" transform="translate(54.4 91.6)"><tspan x="0" y="0">S</tspan></text>
    <text class="st3" transform="translate(62.9 91.6)"><tspan x="0" y="0">air</tspan></text>
  </g>
  <g>
    <path class="st8" d="M481.7,61.9v53.9h-73.5c-8.5,0-15.3-6.9-15.3-15.3v-23.3c0-8.5,6.9-15.3,15.3-15.3,0,0,73.5,0,73.5,0Z"/>
    <path class="st9" d="M570.5,77.2v23.3c0,8.5-6.9,15.3-15.3,15.3h-73.5v-53.9h73.5c8.5,0,15.3,6.9,15.3,15.3Z"/>
  </g>
  <g>
    <g>
      <path class="st1" d="M445.5,80.5v.7c-.2-.2-.5-.3-.7-.4-.7-.4-1.5-.6-2.2-.7-.2-.3-.5-.4-.8-.4h-17.4c-.4,0-.9.4-.9.9v10.3l4.2-3.7,3.7,3,2-2.2.5.5v.7c-1,.2-1.7,1-1.8,2.1-.2,1.5,0,3.1,0,4.7,0,.5,0,1.1,0,1.6h-8.1c-1.9-.2-3.3-1.7-3.4-3.6v-13.4c0-1.8,1.5-3.4,3.3-3.6h18c1.9.1,3.4,1.8,3.4,3.7h0Z"/>
      <path class="st1" d="M430.8,86.4c-2.7.1-2.8-4-.2-4.1s2.8,4,.2,4.1Z"/>
      <path class="st1" d="M448.1,90c-.1,0-.2,0-.3,0v-3.6c0-1.3-1.1-2.9-2.2-4-.4-.3-.8-.6-1.2-.8-.5-.3-1-.4-1.6-.6-.4,0-.8-.1-1.2-.1-3.3,0-6.5,2.4-6.5,5.9v3.2c-.1,0-.2,0-.3,0-.8,0-1.4.4-1.5,1.2-.2,1.9,0,4.1,0,6.1,0,.8,0,1.6,0,2.4,0,.5.4.9.9,1.1h14.6c.3-.2.6-.4.7-.7v-9.1c-.1-.7-.7-1.1-1.4-1.1h0ZM445,90.1h-7.3v-3.5s0,0,0-.1h0c.1-.7.9-1.8,1.4-2.1.6-.5,1.4-.7,2.1-.7s1,0,1.4.3c1.3.5,2.3,1.6,2.3,3v3.1Z"/>
    </g>
    <g>
      <path class="st8" d="M542.3,85.5c-.9-2.7-3.5-4.2-6.1-4.2s-3.2.6-4.5,1.8c0,0,0,0-.1.1-.6.7-1.7,2.5-1.7,3.4v3.7h-9.9c-.4,0-1,.7-1,1.1.1,1.8,0,3.7,0,5.6,0,1,0,1.9,0,2.8,0,.7.5,1.2,1.2,1.3h14c.5,0,1-.6,1.1-1,.3-2.7-.2-6,0-8.7,0-.4-.7-1.1-.9-1.1h-1.8c0-1.6-.3-3.3.6-4.7.7-1.1,1.9-1.7,3.1-1.7s1.6.3,2.3.8c2.1,1.6,1.2,4.2,1.3,6.5,0,.8.7,1,1.3,1s.4,0,.6,0c.4,0,.7-.3.8-.8.2-1.3,0-4.8-.3-5.9h0Z"/>
      <polygon class="st8" points="527.7 89.3 524.3 85.7 521.9 89.3 527.7 89.3"/>
      <path class="st8" d="M520,89.3h1.4l-1.8-1.8-2,2.2-3.7-3-4.3,3.7v-10.3c0-.4.5-.9.9-.9h17.4c.5,0,1,.4,1,.9v5.8c.3-1.3,1.3-2.8,1.9-3.5.3-.3.5-.5.9-.8v-1.6c0-1.9-1.5-3.5-3.4-3.7h-18c-1.9.2-3.3,1.8-3.3,3.6v13.4c0,1.8,1.5,3.4,3.4,3.6h7.6c0-.6,0-1.1,0-1.7,0-1.3,0-2.7,0-3.9h0c0-.7.4-1.3.7-1.5.3-.3.8-.7,1.3-.7h0Z"/>
      <path class="st8" d="M517,86.1c2.6-.1,2.5-4.2-.2-4.1-2.7,0-2.5,4.2.2,4.1Z"/>
    </g>
  </g>
  <path class="st8" d="M784.7,248v299.8c0,16.9-13.3,30.6-29.6,30.6h-210.9V217.4h210.9c16.3,0,29.6,13.7,29.6,30.6h0Z"/>
  <rect class="st9" x="563.6" y="132.3" width="67.8" height="58.8" rx="10.3" ry="10.3"/>
  <path class="st1" d="M535.7,217.4v361.1H178.2c-16.9,0-30.6-13.7-30.6-30.6V248c0-16.9,13.7-30.6,30.6-30.6h357.5Z"/>
  <g>
    <path class="st8" d="M447,169.1c1.3-1.8,2-3.9,2-6.3s-1.2-5.6-3.1-7.6c-1.1.4-2.1,1-2.9,1.8,1.6,1.4,2.7,3.4,2.7,5.8,0,4.1-3.4,7.5-7.5,7.5s-7.5-3.4-7.5-7.5,1.4-5,3.5-6.3c-1-.7-2.1-1.3-3.3-1.6-2.1,2-3.4,4.8-3.4,7.9,0,6,4.9,10.8,10.8,10.8s4.7-.8,6.5-2.2l6.4,6.4,2.3-2.3-6.5-6.5Z"/>
    <path class="st8" d="M431.8,154.2c1,.3,1.9.8,2.7,1.4,2.2,1.5,3.9,3.9,4.4,6.6v.3c0,0,.1-.3.1-.3.5-2.2,1.6-4.2,3.2-5.7.9-.8,1.9-1.5,2.9-1.9.7-.3,1.4-.6,2.2-.7h.3c0,0-.3-.1-.3-.1-4.2-.9-7.5-4.1-8.4-8.4v-.3c0,0-.1.3-.1.3-.9,4.2-4.1,7.5-8.4,8.4h-.3c0,0,.3.1.3.1.4,0,.8.2,1.2.4Z"/>
  </g>
  <path class="st8" d="M445.1,149.8c.6.2,1.2.5,1.7.8,1.4.9,2.4,2.4,2.7,4.1v.2s0-.2,0-.2c.3-1.4,1-2.6,2-3.5.5-.5,1.1-.9,1.8-1.2.4-.2.9-.4,1.4-.4h.2s-.2,0-.2,0c-2.6-.5-4.6-2.6-5.2-5.2v-.2s0,.2,0,.2c-.5,2.6-2.6,4.6-5.2,5.2h-.2s.2,0,.2,0c.3,0,.5.1.8.2h0Z"/>
  <g>
    <path d="M433.5,42.6h6.3v1.4h-2.4v8.8h-1.4v-8.8h-2.4v-1.4Z"/>
    <path d="M442,46.2v1.4c.3-.5.6-.9.9-1.2.3-.2.7-.4,1.2-.4s.3,0,.6,0l-.4,1.4c-.3,0-.4,0-.5,0-.5,0-.9.2-1.2.5s-.5.7-.5,1.2v3.7h-1.4v-6.6h1.4Z"/>
    <path d="M451.3,46.2h1.4v6.6h-1.4v-1.3c-.7,1-1.5,1.5-2.5,1.5s-1.6-.3-2.2-1c-.6-.7-.9-1.5-.9-2.5s.3-1.7.9-2.4c.6-.7,1.4-1,2.2-1s1,.1,1.5.4c.5.3.8.7,1.1,1.1v-1.4ZM451.5,49.5c0-.6-.2-1.1-.7-1.6-.4-.4-1-.6-1.6-.6s-1.1.2-1.5.6c-.4.4-.7.9-.7,1.5s.2,1.2.6,1.6c.4.4,1,.7,1.6.7s1.1-.2,1.6-.7c.4-.4.7-1,.7-1.6Z"/>
    <path d="M454.6,52.8v-6.6h1.4v1.1c.4-.4.8-.8,1.1-1,.3-.2.7-.3,1.1-.3.6,0,1.1.2,1.5.6.4.4.6.9.6,1.4v4.8h-1.4v-4.4c0-.4-.1-.7-.3-.9-.2-.2-.5-.4-.9-.4s-.9.2-1.2.6c-.3.4-.5.9-.5,1.4v3.6h-1.4Z"/>
    <path d="M467,50.8v1.6c-.7.4-1.4.6-2.1.6s-1.7-.3-2.4-1c-.7-.7-1-1.5-1-2.4s.3-1.9,1-2.6c.7-.7,1.5-1,2.6-1s1.3.2,1.9.5v1.6c-.7-.5-1.4-.7-2-.7s-1.1.2-1.5.6-.7.9-.7,1.4.2,1.1.6,1.6c.4.4.9.6,1.5.6s1.3-.3,2.1-.8Z"/>
    <path d="M473.9,46.2h1.4v6.6h-1.4v-1.3c-.7,1-1.5,1.5-2.5,1.5s-1.6-.3-2.2-1c-.6-.7-.9-1.5-.9-2.5s.3-1.7.9-2.4c.6-.7,1.4-1,2.2-1s1,.1,1.5.4c.5.3.8.7,1.1,1.1v-1.4ZM474.1,49.5c0-.6-.2-1.1-.7-1.6-.4-.4-1-.6-1.6-.6s-1.1.2-1.5.6c-.4.4-.7.9-.7,1.5s.2,1.2.6,1.6c.4.4,1,.7,1.6.7s1.1-.2,1.6-.7c.4-.4.7-1,.7-1.6Z"/>
    <path d="M479,46.2v1.4c.3-.5.6-.9.9-1.2.3-.2.7-.4,1.2-.4s.3,0,.6,0l-.4,1.4c-.3,0-.4,0-.5,0-.5,0-.9.2-1.2.5s-.5.7-.5,1.2v3.7h-1.4v-6.6h1.4Z"/>
    <path d="M487.2,44c0-.3.1-.5.3-.8.2-.2.5-.3.8-.3s.5.1.8.3c.2.2.3.5.3.8s-.1.5-.3.8c-.2.2-.5.3-.8.3s-.5-.1-.8-.3-.3-.5-.3-.8ZM487.6,46.2h1.4v6.6h-1.4v-6.6Z"/>
    <path d="M490.9,52.8v-6.6h1.4v1c.3-.4.6-.7.9-.9.3-.2.6-.3,1-.3s.9.1,1.2.3c.3.2.5.6.7,1.1.3-.5.7-.8,1-1.1.3-.2.7-.3,1.1-.3s1,.2,1.4.6c.4.4.6.9.6,1.4v4.8h-1.4v-4.5c0-.7-.4-1.1-1.1-1.1s-.8.2-1.1.6c-.3.4-.4.8-.4,1.4v3.6h-1.4v-4.3c0-.9-.4-1.3-1.1-1.3s-.8.2-1.1.5c-.3.4-.4.8-.4,1.3v3.7h-1.4Z"/>
    <path d="M507.6,46.2h1.4v6.6h-1.4v-1.3c-.7,1-1.5,1.5-2.5,1.5s-1.6-.3-2.2-1c-.6-.7-.9-1.5-.9-2.5s.3-1.7.9-2.4c.6-.7,1.4-1,2.2-1s1,.1,1.5.4c.5.3.8.7,1.1,1.1v-1.4ZM507.8,49.5c0-.6-.2-1.1-.7-1.6-.4-.4-1-.6-1.6-.6s-1.1.2-1.5.6c-.4.4-.7.9-.7,1.5s.2,1.2.6,1.6,1,.7,1.6.7,1.1-.2,1.6-.7c.4-.4.7-1,.7-1.6Z"/>
    <path d="M516.7,46.2h1.4v6.4c0,.9-.3,1.7-1,2.4-.6.7-1.4,1-2.3,1s-1.3-.2-1.9-.6c-.6-.4-1-1-1.3-1.7h1.4c.4.7,1,1.1,1.8,1.1s1-.2,1.3-.6c.4-.4.6-.8.6-1.4v-1.3c-.7,1-1.5,1.5-2.6,1.5s-1.6-.3-2.2-1c-.6-.7-.9-1.5-.9-2.5s.3-1.8.9-2.5c.6-.7,1.3-1,2.2-1s2,.5,2.6,1.6v-1.4ZM516.9,49.5c0-.6-.2-1.1-.6-1.6-.4-.4-1-.6-1.6-.6s-1.1.2-1.5.7c-.4.4-.7.9-.7,1.5s.2,1.1.7,1.6c.4.4,1,.7,1.6.7s1.1-.2,1.6-.7c.4-.4.7-1,.7-1.6Z"/>
    <path d="M526.5,49.7h-5.7c.1.7.4,1.2.8,1.5s.9.5,1.4.5c.8,0,1.5-.3,2-1l1,.8c-.8,1-1.8,1.5-3.1,1.5s-1.8-.3-2.5-1c-.7-.7-1-1.5-1-2.5s.3-1.8,1-2.4c.7-.7,1.5-1,2.5-1s1.8.3,2.5,1c.7.7,1,1.6,1,2.7ZM521,48.6h4.1c-.4-.9-1.1-1.4-2-1.4s-1.6.5-2.1,1.4Z"/>
    <path d="M528,52.8v-6.6h1.4v1c.3-.4.6-.7.9-.9.3-.2.6-.3,1-.3s.9.1,1.2.3c.3.2.5.6.7,1.1.4-.5.7-.8,1-1.1.3-.2.7-.3,1.1-.3s1,.2,1.4.6c.4.4.6.9.6,1.4v4.8h-1.4v-4.5c0-.7-.4-1.1-1.1-1.1s-.8.2-1.1.6c-.3.4-.4.8-.4,1.4v3.6h-1.4v-4.3c0-.9-.4-1.3-1.1-1.3s-.8.2-1.1.5-.4.8-.4,1.3v3.7h-1.4Z"/>
  </g>
  <g class="st0">
    <path class="st8" d="M440.6,250l-198.8.2c-23.3,2.5-41.4,21.1-43.5,44.4v197.2c1.9,24.2,20.9,43.2,45.1,45.1h196.7c24.2-2,43.2-20.9,45.1-45.1v-196.7c-2-24-20.6-42.9-44.6-45.1ZM453.4,402.4l-1.8-.9-52.3-52.3c-5.9-4.8-14.2-4.7-20,.3l-85.7,85.1-63.5-63.9-.3-2.1c1.9-22.9-2.5-49.9,0-72.3,1-8.7,7.7-14.4,16.3-14.7h191.9c5.4.7,10.7,3.4,13.2,8.4.4.9,2.1,5.1,2.1,5.7v106.7Z"/>
    <path class="st8" d="M289.9,361.1c-33.5,3.9-37.1-43.5-6.9-47,32-3.7,35.4,43.6,6.9,47Z"/>
  </g>
  <g>
    <path d="M185.9,133.4c.5,0,1.2-.2,2-.2s1.8.2,2.3.7c.4.4.7,1,.7,1.7s-.2,1.3-.6,1.7c-.6.6-1.5.9-2.5.9s-.6,0-.8,0v3.2h-1v-8ZM187,137.3c.2,0,.5,0,.9,0,1.3,0,2-.6,2-1.7s-.8-1.6-1.9-1.6-.8,0-1,0v3.1Z"/>
    <path d="M192.5,138.6c0,1.4.9,2,2,2s1.2-.1,1.6-.3l.2.8c-.4.2-1,.4-1.9.4-1.8,0-2.9-1.2-2.9-2.9s1-3.1,2.7-3.1,2.4,1.7,2.4,2.7,0,.4,0,.5h-4.1ZM195.6,137.9c0-.7-.3-1.7-1.5-1.7s-1.5,1-1.6,1.7h3.1Z"/>
    <path d="M197.8,140.3c.3.2.9.4,1.4.4.8,0,1.1-.4,1.1-.9s-.3-.8-1.1-1.1c-1-.4-1.5-.9-1.5-1.6s.8-1.7,2-1.7,1.1.2,1.4.4l-.3.8c-.2-.1-.6-.3-1.2-.3s-1,.4-1,.8.3.7,1.1,1c1,.4,1.5.9,1.5,1.8s-.8,1.7-2.2,1.7-1.2-.2-1.6-.4l.3-.8Z"/>
    <path d="M206.7,140.4h0c-.3.6-1,1-1.9,1-1.4,0-2.5-1.2-2.5-2.9s1.4-3.1,2.6-3.1,1.5.4,1.8,1h0v-.9h1c0,.5,0,1,0,1.6v6.6h-1.1v-3.3ZM206.7,137.9c0-.1,0-.3,0-.4-.2-.6-.7-1.2-1.5-1.2s-1.8.9-1.8,2.2.6,2.2,1.7,2.2,1.3-.4,1.5-1.2c0-.1,0-.3,0-.5v-1.1Z"/>
    <path d="M214.3,139.8c0,.6,0,1.1,0,1.6h-.9v-.9h0c-.3.5-.9,1.1-1.9,1.1s-2-.5-2-2.5v-3.4h1.1v3.2c0,1.1.3,1.8,1.3,1.8s1.2-.5,1.4-1c0-.2,0-.3,0-.5v-3.6h1.1v4.2Z"/>
    <path d="M217.3,133.9c0,.4-.3.6-.7.6s-.6-.3-.6-.6.3-.7.7-.7.6.3.6.7ZM216.1,141.3v-5.8h1.1v5.8h-1.1Z"/>
    <path d="M218.8,140.3c.3.2.9.4,1.4.4.8,0,1.1-.4,1.1-.9s-.3-.8-1.1-1.1c-1-.4-1.5-.9-1.5-1.6s.8-1.7,2-1.7,1.1.2,1.4.4l-.3.8c-.2-.1-.6-.3-1.2-.3s-1,.4-1,.8.3.7,1.1,1c1,.4,1.5.9,1.5,1.8s-.8,1.7-2.2,1.7-1.2-.2-1.6-.4l.3-.8Z"/>
    <path d="M226.9,141.3v-.7h-.1c-.3.5-.9.9-1.8.9-1.2,0-1.8-.8-1.8-1.7,0-1.4,1.2-2.2,3.5-2.2h0c0-.6-.1-1.5-1.3-1.5s-1.1.2-1.5.4l-.2-.7c.5-.3,1.2-.5,1.9-.5,1.8,0,2.2,1.2,2.2,2.4v2.2c0,.5,0,1,0,1.4h-1ZM226.7,138.4c-1.2,0-2.5.2-2.5,1.3s.5,1,1,1,1.2-.5,1.4-1c0-.1,0-.2,0-.3v-1Z"/>
    <path d="M232,137.4c0-.7,0-1.3,0-1.9h.9v1h0c.4-.7,1.1-1.1,2.1-1.1,1.4,0,2.5,1.2,2.5,3s-1.3,3.1-2.6,3.1-1.4-.3-1.8-.9h0v3.2h-1v-6.3ZM233,139c0,.2,0,.3,0,.4.2.7.8,1.2,1.6,1.2,1.1,0,1.8-.9,1.8-2.2s-.6-2.2-1.7-2.2-1.4.5-1.6,1.3c0,.1,0,.3,0,.4v1Z"/>
    <path d="M238.8,137.3c0-.7,0-1.3,0-1.8h.9v1.1h0c.3-.8.9-1.3,1.6-1.3s.2,0,.3,0v1c-.1,0-.2,0-.4,0-.7,0-1.3.6-1.4,1.4,0,.1,0,.3,0,.5v3.1h-1v-4Z"/>
    <path d="M247.9,138.4c0,2.1-1.5,3.1-2.9,3.1s-2.8-1.2-2.8-3,1.3-3.1,2.9-3.1,2.8,1.2,2.8,3ZM243.3,138.5c0,1.3.7,2.2,1.8,2.2s1.8-.9,1.8-2.3-.5-2.2-1.7-2.2-1.8,1.2-1.8,2.3Z"/>
    <path d="M249.3,141.3v-5h-.8v-.8h.8v-.3c0-.8.2-1.6.7-2,.4-.4.9-.5,1.4-.5s.7,0,.9.2v.8c-.3,0-.5-.1-.8-.1-.9,0-1.1.8-1.1,1.7v.3h1.4v.8h-1.4v5h-1Z"/>
    <path d="M257.6,139.8c0,.6,0,1.1,0,1.6h-.9v-.9h0c-.3.5-.9,1.1-1.9,1.1s-2-.5-2-2.5v-3.4h1.1v3.2c0,1.1.3,1.8,1.3,1.8s1.2-.5,1.4-1c0-.2,0-.3,0-.5v-3.6h1.1v4.2Z"/>
    <path d="M259.3,137.1c0-.6,0-1.1,0-1.6h.9v1h0c.3-.6,1-1.1,1.9-1.1s2.1.5,2.1,2.5v3.5h-1.1v-3.3c0-.9-.3-1.7-1.3-1.7s-1.2.5-1.4,1.1c0,.1,0,.3,0,.5v3.5h-1.1v-4.2Z"/>
    <path d="M271,132.8v7c0,.5,0,1.1,0,1.5h-.9v-1h0c-.3.6-1,1.1-2,1.1-1.4,0-2.5-1.2-2.5-3,0-1.9,1.2-3.1,2.6-3.1s1.5.4,1.8.9h0v-3.5h1.1ZM269.9,137.9c0-.1,0-.3,0-.4-.2-.7-.7-1.2-1.5-1.2s-1.7,1-1.7,2.2.6,2.1,1.7,2.1,1.4-.5,1.5-1.3c0-.1,0-.3,0-.5v-1Z"/>
    <path d="M276,141.3v-.7h-.1c-.3.5-.9.9-1.8.9-1.2,0-1.8-.8-1.8-1.7,0-1.4,1.2-2.2,3.5-2.2h0c0-.6-.1-1.5-1.3-1.5s-1.1.2-1.5.4l-.2-.7c.5-.3,1.2-.5,1.9-.5,1.8,0,2.2,1.2,2.2,2.4v2.2c0,.5,0,1,0,1.4h-1ZM275.8,138.4c-1.2,0-2.5.2-2.5,1.3s.5,1,1,1,1.2-.5,1.4-1c0-.1,0-.2,0-.3v-1Z"/>
  </g>
  <g>
    <g>
      <path class="st8" d="M615.4,162.1c-.3,1.6-.5,3.4-.9,5.1,0,0,0,0-.1,0-.2.7-.9,1-1.5,1.3-10.2.1-20.5.2-30.7,0-.5-.1-1.2-.6-1.5-1.1-.3-.4-.4-1.8-.5-2.4,0-.1-.1-.2-.1-.3-.1-.7-.2-1.3-.3-1.9-.2-1.3-.7-2.3.2-3.6.3-.4,1.2-.9,1.7-1.2.4-.3,1-.7,1.5-1,0,0,.1,0,.2,0h0c0-.1.2-.1.2-.2,0,0,.7-.5.8-.6.7-.4,1.4-1,2.2-1.5,1,.1,2.3-.1,3.2,0,0,0,.2,0,.2.1-.5.4-1,.7-1.5,1.1-1.2.9-2.3,1.8-3.4,2.7-.2.2-.6.3-.8.5,0,0-.2.2-.2.3h6.4s0,.1,0,.1c0,0,.2,0,.2,0,0,0,.1.4.2.5.3.9.8,2,1.1,2.9,0,.2.1.6.3.8h10.8c.1,0,.3-.7.3-.8.4-.9.9-2.1,1.1-3.2,0,0,0,0,.1,0,0,0,0-.1,0-.2,0,0,.2,0,.2,0,0,0,0-.1,0-.1h6.4c0-.1,0-.1,0-.1-.3-.2-.6-.4-.9-.6-1.2-.9-2.3-1.9-3.5-2.8-.4-.3-1-.6-1.4-1,0,0,.2-.1.2-.1h3.2c.3.1.6.4.8.6,1.4.9,2.7,1.8,4,2.7.9.6,1.8,1,2.1,2.1.2.8,0,1.2-.2,1.9h0Z"/>
      <path class="st8" d="M606.8,146.5h-5.8v9.3h-7v-9.3h-5.8l.5-.6c2.5-2.2,4.9-4.6,7.3-6.8.2-.1,1.5-1.5,1.7-1.5l9.2,8.8h0Z"/>
    </g>
    <g>
      <path class="st8" d="M590,177.1c-.2.1-.6.2-1.1.2-1.1,0-2-.7-2-2s.9-2.1,2.1-2.1.8.1,1,.2v.4c-.3-.1-.6-.2-1-.2-1,0-1.6.6-1.6,1.7s.6,1.6,1.5,1.6.6,0,.8-.2v.4h.1Z"/>
      <path class="st8" d="M592.2,177.2v-.4h0c-.2.2-.5.4-.9.4s-.9-.4-.9-.8c0-.7.6-1.1,1.8-1.1h0c0-.3,0-.7-.7-.7s-.5,0-.8.2v-.4c.1-.2.5-.3.8-.3.9,0,1.1.6,1.1,1.2v1.1c0,.2,0,.5,0,.7h-.5ZM592.2,175.8c-.6,0-1.2,0-1.2.6s.2.5.5.5.6-.2.7-.5c0,0,0-.1,0-.2v-.5h0Z"/>
      <path class="st8" d="M593.5,175.2c0-.3,0-.6,0-.9h.5v.6h0c.1-.4.5-.6.8-.6s0,0,.2,0v.5s-.1,0-.2,0c-.4,0-.6.3-.7.7,0,0,0,.2,0,.2v1.6h-.5v-2Z"/>
      <path class="st8" d="M595.5,175.2c0-.3,0-.6,0-.9h.5v.6h0c.1-.4.5-.6.8-.6s0,0,.2,0v.5s-.1,0-.2,0c-.4,0-.6.3-.7.7,0,0,0,.2,0,.2v1.6h-.5v-2Z"/>
      <path class="st8" d="M597.7,175.9c0,.7.5,1,1,1s.6,0,.8-.1v.4c0,0-.4.2-.9.2-.9,0-1.4-.6-1.4-1.5s.5-1.6,1.4-1.6,1.2.8,1.2,1.4,0,.2,0,.2h-2ZM599.2,175.5c0-.3-.1-.9-.7-.9s-.8.5-.8.9h1.5Z"/>
      <path class="st8" d="M602.9,174.3c0,.2,0,.4,0,.8v1.7c0,.7-.1,1.1-.4,1.3-.3.3-.7.4-1.1.4s-.7,0-1-.2v-.4c.3.1.6.2,1,.2.5,0,.9-.3.9-1v-.3h0c-.2.3-.5.5-.9.5-.7,0-1.2-.6-1.2-1.4s.6-1.5,1.3-1.5.8.3.9.5h0v-.4h.5,0ZM602.4,175.5c0,0,0-.2,0-.2,0-.3-.3-.6-.7-.6s-.9.4-.9,1.1.3,1,.9,1,.6-.2.7-.5c0,0,0-.2,0-.3v-.5h0Z"/>
      <path class="st8" d="M605.4,177.2v-.4h0c-.2.2-.5.4-.9.4s-.9-.4-.9-.8c0-.7.6-1.1,1.8-1.1h0c0-.3,0-.7-.7-.7s-.5,0-.8.2v-.4c.1-.2.5-.3.8-.3.9,0,1.1.6,1.1,1.2v1.1c0,.2,0,.5,0,.7h-.5ZM605.3,175.8c-.6,0-1.2,0-1.2.6s.2.5.5.5.6-.2.7-.5c0,0,0-.1,0-.2v-.5h0Z"/>
      <path class="st8" d="M606.6,175.2c0-.3,0-.6,0-.9h.5v.6h0c.1-.4.5-.6.8-.6s0,0,.2,0v.5s-.1,0-.2,0c-.4,0-.6.3-.7.7,0,0,0,.2,0,.2v1.6h-.5v-2Z"/>
      <path class="st8" d="M587.7,180.4v4h-.5v-4h.5Z"/>
      <path class="st8" d="M588.7,182.3c0-.3,0-.6,0-.8h.5v.5h0c.2-.3.4-.5.9-.5s.7.2.8.6h0c0-.2.2-.3.3-.4.2-.1.4-.2.6-.2s1,.2,1,1.3v1.7h-.5v-1.6c0-.6-.2-.9-.6-.9s-.5.2-.6.5c0,0,0,.2,0,.3v1.8h-.5v-1.7c0-.5-.2-.8-.6-.8s-.6.3-.7.5c0,0,0,.2,0,.3v1.8h-.5v-2.1h0Z"/>
      <path class="st8" d="M595.3,184.4v-.4h0c-.2.2-.5.4-.9.4s-.9-.4-.9-.8c0-.7.6-1.1,1.8-1.1h0c0-.3,0-.7-.7-.7s-.5,0-.8.2v-.4c.1-.2.5-.3.8-.3.9,0,1.1.6,1.1,1.2v1.1c0,.2,0,.5,0,.7h-.5ZM595.2,182.9c-.6,0-1.2,0-1.2.6s.2.5.5.5.6-.2.7-.5c0,0,0-.1,0-.2v-.5h0Z"/>
      <path class="st8" d="M599.1,181.5c0,.2,0,.4,0,.8v1.7c0,.7-.1,1.1-.4,1.3-.3.3-.7.4-1.1.4s-.7,0-1-.2v-.4c.3.1.6.2,1,.2.5,0,.9-.3.9-1v-.3h0c-.2.3-.5.5-.9.5-.7,0-1.2-.6-1.2-1.4s.6-1.5,1.3-1.5.8.3.9.5h0v-.4h.5,0ZM598.5,182.7c0,0,0-.2,0-.2,0-.3-.3-.6-.7-.6s-.9.4-.9,1.1.3,1,.9,1,.6-.2.7-.5c0,0,0-.2,0-.3v-.5h0Z"/>
      <path class="st8" d="M600.2,183.1c0,.7.5,1,1,1s.6,0,.8-.1v.4c0,0-.4.2-.9.2-.9,0-1.4-.6-1.4-1.5s.5-1.6,1.4-1.6,1.2.8,1.2,1.4,0,.2,0,.2h-2ZM601.8,182.7c0-.3-.1-.9-.7-.9s-.8.5-.8.9h1.5Z"/>
      <path class="st8" d="M602.9,182.3c0-.3,0-.6,0-.8h.5v.5h0c.2-.3.4-.5.9-.5s.7.2.8.6h0c0-.2.2-.3.3-.4.2-.1.4-.2.6-.2s1,.2,1,1.3v1.7h-.5v-1.6c0-.6-.2-.9-.6-.9s-.5.2-.6.5c0,0,0,.2,0,.3v1.8h-.5v-1.7c0-.5-.2-.8-.6-.8s-.6.3-.7.5c0,0,0,.2,0,.3v1.8h-.5v-2.1h0Z"/>
    </g>
  </g>
</svg>