<?xml version="1.0" encoding="UTF-8"?>
<svg id="Capa_1" xmlns="http://www.w3.org/2000/svg" version="1.1" viewBox="0 0 800 600">
  <!-- Generator: Adobe Illustrator 29.2.1, SVG Export Plug-In . SVG Version: 2.1.0 Build 116)  -->
  <defs>
    <style>
      .st0, .st1, .st2, .st3 {
        fill: #fff;
      }

      .st4 {
        fill: #1e1e1e;
      }

      .st1 {
        opacity: .2;
      }

      .st1, .st5, .st2, .st3 {
        isolation: isolate;
      }

      .st6 {
        fill: #140f1b;
      }

      .st7 {
        fill: #efefef;
      }

      .st2 {
        font-family: ArialMT, Arial;
        font-size: 14.4px;
      }

      .st8 {
        fill: #f4f4f4;
      }

      .st3 {
        opacity: .8;
      }
    </style>
  </defs>
  <rect class="st4" width="800" height="600"/>
  <rect class="st0" width="800" height="600"/>
  <rect class="st6" width="800" height="600"/>
  <path class="st1" d="M19.7,568h-.9c0-.2-.1-.5-.3-.7-.1-.2-.3-.3-.5-.5-.2-.1-.4-.2-.6-.3-.2,0-.5,0-.7,0-.4,0-.8.1-1.2.3-.4.2-.6.5-.9,1s-.3,1-.3,1.6.1,1.2.3,1.6c.2.4.5.8.9,1,.4.2.8.3,1.2.3s.5,0,.7,0c.2,0,.4-.2.6-.3.2-.1.3-.3.5-.5.1-.2.2-.4.3-.7h.9c0,.4-.2.7-.4,1s-.4.5-.6.8c-.3.2-.5.4-.9.5-.3,0-.7.2-1,.2-.6,0-1.2-.2-1.6-.5s-.9-.7-1.1-1.3c-.3-.6-.4-1.2-.4-2s.1-1.4.4-2,.7-1,1.1-1.3,1-.5,1.6-.5.7,0,1,.2c.3,0,.6.3.9.5.3.2.5.5.6.8.2.3.3.6.4,1h0ZM21,573v-5.5h.8v.8h0c.1-.3.3-.5.5-.7s.5-.2.9-.2h.2c0,0,.2,0,.2,0v.8s0,0-.2,0c-.1,0-.2,0-.3,0-.3,0-.5,0-.7.2s-.4.3-.5.5c-.1.2-.2.4-.2.7v3.5h-.8,0ZM26.9,573.1c-.5,0-1-.1-1.4-.3-.4-.2-.7-.6-.9-1-.2-.4-.3-.9-.3-1.5s.1-1,.3-1.5.5-.8.9-1,.8-.4,1.3-.4.6,0,.8.1.5.2.8.5.4.5.5.8c.1.3.2.8.2,1.3v.3h-4.2v-.7h3.4c0-.3,0-.6-.2-.8s-.3-.4-.5-.6c-.2-.1-.5-.2-.8-.2s-.6,0-.9.2c-.2.2-.4.4-.6.6s-.2.5-.2.8v.5c0,.4,0,.8.2,1,.1.3.3.5.6.7s.5.2.9.2.4,0,.6,0,.3-.2.5-.3c.1-.1.2-.3.3-.5l.8.2c0,.3-.2.5-.4.7-.2.2-.5.4-.8.5-.3.1-.6.2-1,.2h0ZM32,573.1c-.4,0-.7,0-.9-.2s-.5-.3-.7-.6-.2-.5-.2-.9,0-.6.2-.8c.1-.2.3-.3.5-.5.2-.1.4-.2.7-.2s.5,0,.8-.1c.3,0,.6,0,.8,0,.2,0,.4,0,.5-.1,0,0,.2-.2.2-.3h0c0-.4,0-.7-.3-.9-.2-.2-.5-.3-.9-.3s-.7,0-.9.3c-.2.2-.4.4-.5.6l-.8-.3c.1-.3.3-.6.6-.8.2-.2.5-.3.8-.4.3,0,.6-.1.8-.1s.4,0,.6,0c.2,0,.5.1.7.2.2.1.4.3.5.6s.2.6.2,1v3.6h-.8v-.7h0c0,.1-.2.2-.3.4-.1.1-.3.2-.5.3-.2,0-.5.1-.8.1h0ZM32.2,572.4c.3,0,.6,0,.8-.2s.4-.3.5-.5.2-.4.2-.7v-.8s-.1,0-.2.1c-.1,0-.3,0-.4,0-.2,0-.3,0-.5,0s-.3,0-.3,0c-.2,0-.4,0-.6.1s-.3.2-.5.3c-.1.1-.2.3-.2.5s.1.5.3.7c.2.2.5.2.8.2h0ZM38.4,567.5v.7h-2.8v-.7h2.8ZM36.4,566.2h.8v5.2c0,.2,0,.4,0,.5,0,.1.2.2.3.2s.2,0,.3,0,.2,0,.2,0,.1,0,.1,0l.2.8c0,0-.1,0-.2,0,0,0-.2,0-.4,0-.2,0-.5,0-.7-.2-.2,0-.4-.3-.6-.5-.2-.2-.2-.5-.2-.8v-5.4h0ZM41.9,573.1c-.5,0-1-.1-1.4-.3s-.7-.6-.9-1c-.2-.4-.3-.9-.3-1.5s0-1,.3-1.5c.2-.4.5-.8.9-1s.8-.4,1.3-.4.6,0,.8.1.5.2.8.5.4.5.5.8.2.8.2,1.3v.3h-4.2v-.7h3.3c0-.3,0-.6-.2-.8-.1-.2-.3-.4-.5-.6-.2-.1-.5-.2-.8-.2s-.6,0-.9.2c-.2.2-.4.4-.6.6s-.2.5-.2.8v.5c0,.4,0,.8.2,1,.2.3.3.5.6.7s.5.2.9.2.4,0,.6,0,.3-.2.5-.3c.1-.1.2-.3.3-.5l.8.2c0,.3-.2.5-.4.7-.2.2-.5.4-.8.5s-.6.2-1,.2h0ZM47.5,573.1c-.5,0-.9-.1-1.2-.3s-.6-.6-.8-1-.3-.9-.3-1.5,0-1.1.3-1.5c.2-.4.5-.8.8-1s.8-.3,1.2-.3.6,0,.8.2c.2.1.4.2.5.4s.2.3.3.4h0v-2.7h.8v7.3h-.8v-.8h0c0,0-.2.2-.3.4-.1.2-.3.3-.5.4-.2.1-.5.2-.8.2h0ZM47.6,572.4c.3,0,.6,0,.8-.3.2-.2.4-.4.5-.7.1-.3.2-.7.2-1.1s0-.8-.2-1.1c-.1-.3-.3-.5-.5-.7-.2-.2-.5-.3-.9-.3s-.7,0-.9.3c-.2.2-.4.4-.5.7s-.2.7-.2,1,0,.7.2,1.1.3.6.5.8c.2.2.5.3.9.3h0ZM54.6,573v-7.3h.8v2.7h0c0,0,.2-.2.3-.4.1-.2.3-.3.5-.4s.5-.2.8-.2.9.1,1.2.3c.3.2.6.5.8,1,.2.4.3.9.3,1.5s0,1.1-.3,1.5c-.2.4-.5.8-.8,1s-.8.3-1.2.3-.6,0-.8-.2c-.2-.1-.4-.2-.5-.4-.1-.2-.2-.3-.3-.4h0v.8h-.8ZM55.4,570.3c0,.4,0,.8.2,1.1.1.3.3.6.5.7.2.2.5.3.8.3s.6,0,.9-.3.4-.4.5-.8c.1-.3.2-.7.2-1.1s0-.7-.2-1-.3-.6-.5-.7c-.2-.2-.5-.3-.9-.3s-.6,0-.9.3-.4.4-.5.7c-.1.3-.2.7-.2,1.1h0ZM61,575c-.1,0-.3,0-.4,0s-.2,0-.2,0l.2-.7c.2,0,.4,0,.5,0s.3,0,.4-.2c.1-.1.2-.3.3-.6l.2-.4-2-5.5h.9l1.5,4.3h0l1.5-4.3h.9l-2.3,6.2c0,.3-.2.5-.4.7-.2.2-.3.3-.5.4-.2,0-.4.1-.7.1h0ZM69,573v-7.3h2.5c.5,0,.9,0,1.2.3s.6.4.7.7c.2.3.2.6.2,1s0,.6-.2.8-.2.4-.4.5-.4.2-.6.3h0c.2,0,.4.2.7.3s.4.3.6.6c.2.3.2.6.2,1s0,.7-.2,1-.4.5-.8.7-.8.3-1.4.3h-2.6,0ZM69.9,572.2h1.8c.6,0,1-.1,1.2-.3.2-.2.4-.5.4-.8s0-.5-.2-.7c-.1-.2-.3-.4-.5-.5-.2-.1-.5-.2-.8-.2h-1.8v2.5h0ZM69.9,568.9h1.6c.3,0,.5,0,.7-.2.2,0,.4-.2.5-.4.1-.2.2-.4.2-.7s-.1-.6-.3-.8-.6-.3-1.1-.3h-1.7v2.4h0ZM75.4,573v-5.5h.8v.8h0c0-.3.3-.5.5-.7s.6-.2.9-.2h.2c0,0,.2,0,.2,0v.8s0,0-.2,0c0,0-.2,0-.3,0-.3,0-.5,0-.7.2s-.4.3-.5.5c-.1.2-.2.4-.2.7v3.5h-.8ZM82.5,570.8v-3.2h.8v5.5h-.8v-.9h0c-.1.3-.3.5-.6.7-.3.2-.6.3-1,.3s-.6,0-.9-.2c-.3-.2-.5-.4-.6-.7s-.2-.7-.2-1.2v-3.5h.8v3.4c0,.4.1.7.3,1,.2.2.5.3.9.3s.4,0,.6-.2.4-.3.6-.5.2-.5.2-.8h0ZM85.7,569.7v3.3h-.8v-5.5h.8v.8h0c.1-.3.3-.5.6-.7s.6-.3,1-.3.7,0,1,.2c.3.2.5.4.7.7.2.3.2.7.2,1.2v3.5h-.8v-3.4c0-.4-.1-.8-.3-1s-.5-.4-.9-.4-.5,0-.7.2-.4.3-.5.5c-.1.2-.2.5-.2.8h0ZM93,573.1c-.5,0-.9-.1-1.3-.3-.4-.2-.7-.6-.9-1s-.3-.9-.3-1.5,0-1.1.3-1.5c.2-.4.5-.8.9-1,.4-.2.8-.3,1.3-.3s.9.1,1.3.3.7.6.9,1c.2.4.3.9.3,1.5s0,1.1-.3,1.5-.5.8-.9,1-.8.3-1.3.3ZM93,572.4c.4,0,.7,0,.9-.3s.4-.4.5-.8c.1-.3.2-.7.2-1s0-.7-.2-1c-.1-.3-.3-.6-.5-.8-.2-.2-.6-.3-.9-.3s-.7,0-.9.3c-.2.2-.4.5-.5.8-.1.3-.2.7-.2,1s0,.7.2,1c.1.3.3.6.5.8.2.2.6.3.9.3ZM99.6,573v-7.3h2.5c.6,0,1,0,1.4.3.4.2.6.5.8.8.2.3.3.7.3,1.2s0,.8-.3,1.1c-.2.3-.4.6-.8.8-.4.2-.8.3-1.4.3h-2v-.8h2c.4,0,.7,0,.9-.2.2-.1.4-.3.5-.5.1-.2.2-.5.2-.8s0-.5-.2-.8c-.1-.2-.3-.4-.5-.5-.2-.1-.6-.2-.9-.2h-1.6v6.5h-.9ZM103.1,569.7l1.8,3.3h-1l-1.8-3.3h1,0ZM107.5,573.1c-.3,0-.7,0-.9-.2s-.5-.3-.7-.6-.2-.5-.2-.9,0-.6.2-.8c.1-.2.3-.3.5-.5.2-.1.4-.2.7-.2s.5,0,.8-.1c.3,0,.6,0,.8,0,.2,0,.4,0,.5-.1,0,0,.1-.2.1-.3h0c0-.4,0-.7-.3-.9-.2-.2-.5-.3-.9-.3s-.7,0-.9.3c-.2.2-.4.4-.5.6l-.8-.3c.1-.3.3-.6.6-.8.2-.2.5-.3.8-.4.3,0,.6-.1.8-.1s.4,0,.6,0c.2,0,.4.1.7.2.2.1.4.3.5.6s.2.6.2,1v3.6h-.8v-.7h0c0,.1-.2.2-.3.4s-.3.2-.5.3c-.2,0-.5.1-.8.1h0ZM107.7,572.4c.3,0,.6,0,.8-.2.2-.1.4-.3.5-.5.1-.2.2-.4.2-.7v-.8s-.1,0-.2.1c-.1,0-.3,0-.4,0-.2,0-.3,0-.4,0-.1,0-.3,0-.3,0-.2,0-.4,0-.6.1s-.3.2-.5.3c-.1.1-.2.3-.2.5s.1.5.3.7c.2.2.5.2.8.2h0ZM111.6,573v-5.5h.8v.8h0c.1-.3.3-.5.6-.7s.6-.2.9-.2.7,0,.9.2.4.4.6.7h0c.1-.3.3-.5.6-.7.3-.2.6-.2,1-.2s.9.2,1.2.5c.3.3.5.8.5,1.4v3.7h-.8v-3.7c0-.4-.1-.7-.3-.9s-.5-.3-.8-.3-.7.1-.9.3-.3.5-.3.9v3.5h-.8v-3.7c0-.3,0-.6-.3-.8-.2-.2-.5-.3-.8-.3s-.4,0-.6.2-.3.3-.4.5c-.1.2-.2.4-.2.7v3.4h-.8ZM122.5,573.1c-.5,0-.9-.1-1.3-.3-.4-.2-.7-.6-.9-1s-.3-.9-.3-1.5,0-1.1.3-1.5c.2-.4.5-.8.9-1,.4-.2.8-.3,1.3-.3s.9.1,1.3.3.7.6.9,1c.2.4.3.9.3,1.5s0,1.1-.3,1.5-.5.8-.9,1c-.4.2-.8.3-1.3.3ZM122.5,572.4c.4,0,.7,0,.9-.3s.4-.4.5-.8c.1-.3.2-.7.2-1s0-.7-.2-1c-.1-.3-.3-.6-.5-.8-.2-.2-.6-.3-.9-.3s-.7,0-.9.3c-.2.2-.4.5-.5.8-.1.3-.2.7-.2,1s0,.7.2,1c.1.3.3.6.5.8.2.2.6.3.9.3ZM130.1,568.8l-.8.2c0-.1-.1-.2-.2-.4,0-.1-.2-.2-.4-.3-.2,0-.4-.1-.6-.1s-.6,0-.8.2c-.2.2-.3.3-.3.6s0,.4.2.5.4.2.7.3l.8.2c.5.1.9.3,1.1.5.2.2.4.5.4.9s0,.6-.3.8c-.2.2-.4.4-.7.6-.3.1-.7.2-1.1.2s-1-.1-1.4-.4-.6-.6-.7-1.1l.8-.2c0,.3.2.5.4.7.2.2.5.2.8.2s.7,0,.9-.2.4-.4.4-.6,0-.3-.2-.5c-.1-.1-.3-.2-.6-.3l-.9-.2c-.5-.1-.9-.3-1.1-.5-.2-.2-.3-.6-.3-.9s0-.6.3-.8c.2-.2.4-.4.7-.6.3-.1.7-.2,1-.2.5,0,1,.1,1.3.4s.5.5.7.9h0Z"/>
  <path class="st1" d="M18.2,582.5l-2,5.5h-.9l-2-5.5h.9l1.5,4.3h0l1.5-4.3h.9,0ZM21.4,588.1c-.5,0-1-.1-1.4-.3-.4-.2-.7-.6-.9-1-.2-.4-.3-.9-.3-1.5s.1-1,.3-1.5.5-.8.9-1,.8-.4,1.3-.4.6,0,.8.1.5.2.8.5.4.5.5.8c.1.3.2.8.2,1.3v.3h-4.2v-.7h3.4c0-.3,0-.6-.2-.8s-.3-.4-.5-.6c-.2-.1-.5-.2-.8-.2s-.6,0-.9.2c-.2.2-.4.4-.6.6s-.2.5-.2.8v.5c0,.4,0,.8.2,1,.1.3.3.5.6.7s.5.2.9.2.4,0,.6,0,.3-.2.5-.3c.1-.1.2-.3.3-.5l.8.2c0,.3-.2.5-.4.7-.2.2-.5.4-.8.5-.3.1-.6.2-1,.2ZM25,588v-5.5h.8v.8h0c.1-.3.3-.5.5-.7s.5-.2.9-.2h.2c0,0,.2,0,.2,0v.8s0,0-.2,0c-.1,0-.2,0-.3,0-.3,0-.5,0-.7.2s-.4.3-.5.5c-.1.2-.2.4-.2.7v3.5h-.8,0ZM32.5,583.8l-.8.2c0-.1-.1-.2-.2-.4,0-.1-.2-.2-.4-.3-.2,0-.4-.1-.6-.1s-.6,0-.8.2c-.2.2-.3.3-.3.6s0,.4.2.5.4.2.7.3l.8.2c.5.1.9.3,1.1.5.2.2.4.5.4.9s0,.6-.3.8-.4.4-.8.6-.7.2-1.1.2-1-.1-1.4-.4c-.4-.2-.6-.6-.7-1.1l.8-.2c0,.3.2.5.4.7.2.2.5.2.8.2s.7,0,.9-.2.4-.4.4-.6,0-.3-.2-.5c-.1-.1-.3-.2-.6-.3l-.9-.2c-.5-.1-.9-.3-1.1-.5s-.4-.6-.4-.9,0-.6.3-.8.4-.4.7-.6.6-.2,1-.2c.5,0,1,.1,1.3.4s.5.5.7.9h0ZM35.5,588.1c-.3,0-.7,0-.9-.2s-.5-.3-.7-.6c-.2-.2-.2-.5-.2-.9s0-.6.2-.8c.1-.2.3-.3.5-.5.2-.1.4-.2.7-.2s.5,0,.8-.1c.3,0,.6,0,.8,0,.2,0,.4,0,.5-.1,0,0,.2-.2.2-.3h0c0-.4,0-.7-.3-.9-.2-.2-.5-.3-.9-.3s-.7,0-.9.3c-.2.2-.4.4-.5.6l-.8-.3c.1-.3.3-.6.6-.8.2-.2.5-.3.8-.4.3,0,.6-.1.8-.1s.4,0,.6,0c.2,0,.5.1.7.2.2.1.4.3.5.6s.2.6.2,1v3.6h-.8v-.7h0c0,.1-.2.2-.3.4-.1.1-.3.2-.5.3-.2,0-.5.1-.8.1h0ZM35.6,587.4c.3,0,.6,0,.8-.2s.4-.3.5-.5.2-.4.2-.7v-.8s-.1,0-.2.1c-.1,0-.3,0-.4,0-.2,0-.3,0-.5,0s-.3,0-.3,0c-.2,0-.4,0-.6.1-.2,0-.3.2-.5.3-.1.1-.2.3-.2.5s.1.5.3.7c.2.2.5.2.8.2h0ZM35,581.9h-.7c0-.4,0-.7.3-.9.2-.2.5-.3.8-.3s.3,0,.4,0c0,0,.2,0,.3.2s.2.1.3.2c0,0,.2,0,.3,0s.2,0,.3-.2c0,0,.1-.2.1-.4h.6c0,.4,0,.7-.3.9-.2.2-.5.3-.8.3s-.3,0-.4,0c-.1,0-.2,0-.3-.2,0,0-.2-.1-.3-.2s-.2,0-.3,0-.2,0-.3.2c0,0-.1.2-.1.4h0ZM41.8,588.1c-.5,0-.9-.1-1.3-.3-.4-.2-.7-.6-.9-1s-.3-.9-.3-1.5,0-1.1.3-1.5c.2-.4.5-.8.9-1,.4-.2.8-.3,1.3-.3s.9.1,1.3.3c.4.2.7.6.9,1,.2.4.3.9.3,1.5s0,1.1-.3,1.5c-.2.4-.5.8-.9,1-.4.2-.8.3-1.3.3ZM41.8,587.4c.4,0,.7,0,.9-.3.2-.2.4-.4.5-.8.1-.3.2-.7.2-1s0-.7-.2-1-.3-.6-.5-.8c-.2-.2-.5-.3-.9-.3s-.7,0-.9.3c-.2.2-.4.5-.5.8-.1.3-.2.7-.2,1s0,.7.2,1c.1.3.3.6.5.8.2.2.5.3.9.3ZM50.9,580.7v7.3h-.9v-6.3h0l-1.8,1.2v-.9l1.8-1.2h.9ZM53.2,588.1c-.2,0-.3,0-.5-.2s-.2-.3-.2-.5,0-.3.2-.5c.1-.1.3-.2.5-.2s.3,0,.5.2c.1.1.2.3.2.5s0,.2,0,.3c0,0-.1.2-.2.2,0,0-.2,0-.3,0ZM57.4,588.1c-.5,0-1-.2-1.4-.4-.4-.3-.7-.7-.9-1.3-.2-.6-.3-1.2-.3-2s0-1.5.3-2,.5-1,.9-1.3c.4-.3.8-.4,1.4-.4s1,.2,1.4.4.7.7.9,1.3c.2.6.3,1.2.3,2s0,1.5-.3,2c-.2.6-.5,1-.9,1.3-.4.3-.8.4-1.4.4ZM57.4,587.3c.5,0,.9-.3,1.2-.8.3-.5.4-1.2.4-2.2s0-1.2-.2-1.6-.3-.8-.6-1c-.2-.2-.5-.3-.9-.3-.5,0-.9.3-1.2.8-.3.5-.4,1.2-.4,2.2s0,1.2.2,1.6.3.8.6,1,.5.3.9.3h0ZM64.1,588v-.6l2.4-2.6c.3-.3.5-.6.7-.8s.3-.4.4-.7c0-.2.1-.4.1-.6s0-.5-.2-.7c-.1-.2-.3-.3-.5-.4s-.4-.2-.7-.2-.5,0-.7.2c-.2.1-.4.3-.5.5-.1.2-.2.5-.2.7h-.8c0-.4,0-.8.3-1.1.2-.3.5-.6.8-.8.3-.2.7-.3,1.2-.3s.8,0,1.1.3c.3.2.6.4.8.7.2.3.3.7.3,1s0,.5-.2.8-.3.5-.5.8c-.2.3-.6.7-1,1.1l-1.6,1.8h0c0,0,3.4,0,3.4,0v.8h-4.6,0ZM72.5,588.1c-.5,0-1-.2-1.4-.4-.4-.3-.7-.7-.9-1.3-.2-.6-.3-1.2-.3-2s0-1.5.3-2c.2-.6.5-1,.9-1.3.4-.3.8-.4,1.4-.4s1,.2,1.4.4.7.7.9,1.3c.2.6.3,1.2.3,2s0,1.5-.3,2c-.2.6-.5,1-.9,1.3-.4.3-.8.4-1.4.4ZM72.5,587.3c.5,0,.9-.3,1.2-.8.3-.5.4-1.2.4-2.2s0-1.2-.2-1.6-.3-.8-.6-1-.6-.3-.9-.3c-.5,0-.9.3-1.2.8-.3.5-.4,1.2-.4,2.2s0,1.2.2,1.6.3.8.6,1,.6.3.9.3h0ZM76.4,588v-.6l2.4-2.6c.3-.3.5-.6.7-.8s.3-.4.4-.7c0-.2.1-.4.1-.6s0-.5-.2-.7c-.1-.2-.3-.3-.5-.4s-.4-.2-.7-.2-.5,0-.7.2c-.2.1-.4.3-.5.5-.1.2-.2.5-.2.7h-.8c0-.4,0-.8.3-1.1.2-.3.5-.6.8-.8.3-.2.7-.3,1.2-.3s.8,0,1.1.3c.3.2.6.4.8.7.2.3.3.7.3,1s0,.5-.2.8-.3.5-.5.8c-.2.3-.6.7-1,1.1l-1.6,1.8h0c0,0,3.4,0,3.4,0v.8h-4.6,0ZM84.7,588.1c-.4,0-.8,0-1.1-.2s-.6-.4-.8-.7-.3-.6-.3-1h.8c0,.3.2.6.4.8.3.2.6.3,1,.3s.6,0,.8-.2.4-.3.6-.6c.1-.2.2-.5.2-.8s0-.6-.2-.8-.3-.5-.6-.6-.5-.2-.8-.2-.4,0-.7,0c-.2,0-.4.2-.6.3h-.8c0,0,.4-3.7.4-3.7h3.8v.8h-3l-.2,2.2h0c.2-.1.3-.2.6-.3s.5-.1.7-.1c.4,0,.8.1,1.2.3.3.2.6.5.8.9s.3.8.3,1.3,0,.9-.3,1.2-.5.7-.8.9c-.4.2-.8.3-1.2.3h0Z"/>
  <rect class="st3" x="136" y="6.4" width="659.9" height="587.3" rx="9.5" ry="9.5"/>
  <g>
    <path class="st0" d="M18,536.9v14.2h-3.5v-14.2h3.5Z"/>
    <path class="st0" d="M35.8,544.3v6.8h-3.3v-5.9c0-1.2-.9-1.4-1.4-1.4s-1.4.3-1.4,1.4v5.9h-3.3v-5.9c0-1.2-.8-1.4-1.4-1.4s-1.4.3-1.4,1.4v5.9h-3.3v-10.3h3.3v.8c.5-.6,1.3-1,2.5-1s2.4.5,2.9,1.4c.6-.8,1.5-1.4,3-1.4,2.5,0,3.7,1.7,3.7,3.7h0Z"/>
    <path class="st0" d="M47,544.7v6.4h-3.3v-1c-.5.8-1.8,1.2-2.8,1.2s-3.5-.5-3.5-3,4.4-3.4,5.1-3.4h1.2c0-1-.5-1.7-1.7-1.7s-1.5.3-2,.7l-2.2-1.5c1.1-1.2,2.7-1.8,4.6-1.8,3.3,0,4.5,1.7,4.5,4.2h0ZM43.7,546.6h-.3c-1.7,0-2.7.3-2.7,1.3s.6,1,1.3,1,1.4-.3,1.7-.7v-1.7h0Z"/>
    <path class="st0" d="M59.8,540.8v9.4c0,2.9-2.1,5-5.8,5s-4.2-.9-5-2.2l2.5-1.5c.3.5,1.2,1,2.4,1,2,0,2.6-1.1,2.6-2.7v-.5c-.6.7-1.5,1.3-2.9,1.3-3.2,0-5-2.3-5-5s1.8-5,5-5,2.3.6,2.9,1.4v-1.1h3.3ZM56.4,545.6c0-1.4-1-2.2-2.2-2.2s-2.2.9-2.2,2.2.8,2.2,2.2,2.2,2.2-.8,2.2-2.2Z"/>
    <path class="st0" d="M72.1,547h-7.4c.3,1.2,1.3,1.8,2.6,1.8s1.8-.5,2.1-.9l2.3,1.4c-.8,1.3-2.4,2.2-4.4,2.2-3.5,0-5.8-2.2-5.8-5.4s2.4-5.4,5.3-5.4,5.7,2.1,5.3,6.4h0ZM69.1,545c-.2-1.2-1.1-1.8-2.2-1.8s-1.9.6-2.2,1.8h4.5Z"/>
    <path class="st0" d="M83.4,546.7l2.9,1.9c-1.3,1.7-3.3,2.8-5.8,2.8-4.2,0-7.2-3.2-7.2-7.4s3-7.4,7.2-7.4,4.5,1.1,5.8,2.7l-2.9,1.9c-.6-.8-1.6-1.3-2.8-1.3-2.5,0-3.7,2-3.7,4s1.3,4,3.7,4,2.2-.5,2.8-1.3h0Z"/>
    <path class="st0" d="M94.3,540.6v3.5c-2.9-.5-3.2,1.2-3.2,3v4.1h-3.3v-10.3h3.3v1.6c.7-1.2,2-1.8,3.2-1.8h0Z"/>
    <path class="st0" d="M106.2,540.8l-5.7,14.2h-3.3l1.9-4.5-4.1-9.7h3.5l2.1,5.9,2.1-5.9h3.5Z"/>
    <path class="st0" d="M118.7,546c0,2.7-1.8,5.4-4.9,5.4s-2.3-.5-2.9-1.3v4.9h-3.3v-14.2h3.3v1c.6-.7,1.5-1.3,2.9-1.3,3.2,0,4.9,2.7,4.9,5.4h0ZM115.4,546c0-1.3-.8-2.2-2.2-2.2s-2.2.8-2.2,2.2,1,2.2,2.2,2.2,2.2-.9,2.2-2.2Z"/>
    <path class="st0" d="M124.3,543.6v3.2c0,1.1.4,1.6,1.4,1.6s.5,0,.6,0v2.8c-.3.1-.8.2-1.4.2-3.2,0-3.9-2.2-3.9-4.2v-3.6h-1.3v-2.7h1.3v-2.2h3.3v2.2h2v2.7h-2Z"/>
  </g>
  <g>
    <path class="st8" d="M75.8,51.1v20.9c-.2.7-.7,1-1.3,1.3-2.5,1.3-5.6,2-8.2,3.3v-3.8h-8.2c-.3,0-1.4-1.1-1.4-1.4v-2.4h1.9v1.9h7.7v-15.2l7.5-3.9h-15.2v1.9h-1.9v-2.4c0-.1.5-.8.7-1,.4-.3.7-.4,1.2-.5,4.9-.5,10.6.4,15.6,0,.8,0,1.4.6,1.6,1.3h0Z"/>
    <polygon class="st8" points="64.4 59.3 64.4 63.2 56.8 63.2 56.8 66.8 51 61.2 56.8 55.7 56.8 59.3 64.4 59.3"/>
  </g>
  <g class="st5">
    <text class="st2" transform="translate(54.4 91.6)"><tspan x="0" y="0">S</tspan></text>
    <text class="st2" transform="translate(62.9 91.6)"><tspan x="0" y="0">air</tspan></text>
  </g>
  <g>
    <path class="st7" d="M481.7,61.9v53.9h-73.5c-8.5,0-15.3-6.9-15.3-15.3v-23.3c0-8.5,6.9-15.3,15.3-15.3,0,0,73.5,0,73.5,0Z"/>
    <path class="st6" d="M570.5,77.2v23.3c0,8.5-6.9,15.3-15.3,15.3h-73.5v-53.9h73.5c8.5,0,15.3,6.9,15.3,15.3Z"/>
  </g>
  <g>
    <g>
      <path class="st6" d="M445.5,80.5v.7c-.2-.2-.5-.3-.7-.4-.7-.4-1.5-.6-2.2-.7-.2-.3-.5-.4-.8-.4h-17.4c-.4,0-.9.4-.9.9v10.3l4.2-3.7,3.7,3,2-2.2.5.5v.7c-1,.2-1.7,1-1.8,2.1-.2,1.5,0,3.1,0,4.7,0,.5,0,1.1,0,1.6h-8.1c-1.9-.2-3.3-1.7-3.4-3.6v-13.4c0-1.8,1.5-3.4,3.3-3.6h18c1.9.1,3.4,1.8,3.4,3.7h0Z"/>
      <path class="st6" d="M430.8,86.4c-2.7.1-2.8-4-.2-4.1s2.8,4,.2,4.1Z"/>
      <path class="st6" d="M448.1,90c-.1,0-.2,0-.3,0v-3.6c0-1.3-1.1-2.9-2.2-4-.4-.3-.8-.6-1.2-.8-.5-.3-1-.4-1.6-.6-.4,0-.8-.1-1.2-.1-3.3,0-6.5,2.4-6.5,5.9v3.2c-.1,0-.2,0-.3,0-.8,0-1.4.4-1.5,1.2-.2,1.9,0,4.1,0,6.1,0,.8,0,1.6,0,2.4,0,.5.4.9.9,1.1h14.6c.3-.2.6-.4.7-.7v-9.1c-.1-.7-.7-1.1-1.4-1.1h0ZM445,90.1h-7.3v-3.5s0,0,0-.1h0c.1-.7.9-1.8,1.4-2.1.6-.5,1.4-.7,2.1-.7s1,0,1.4.3c1.3.5,2.3,1.6,2.3,3v3.1Z"/>
    </g>
    <g>
      <path class="st0" d="M542.3,85.5c-.9-2.7-3.5-4.2-6.1-4.2s-3.2.6-4.5,1.8c0,0,0,0-.1.1-.6.7-1.7,2.5-1.7,3.4v3.7h-9.9c-.4,0-1,.7-1,1.1.1,1.8,0,3.7,0,5.6,0,1,0,1.9,0,2.8,0,.7.5,1.2,1.2,1.3h14c.5,0,1-.6,1.1-1,.3-2.7-.2-6,0-8.7,0-.4-.7-1.1-.9-1.1h-1.8c0-1.6-.3-3.3.6-4.7.7-1.1,1.9-1.7,3.1-1.7s1.6.3,2.3.8c2.1,1.6,1.2,4.2,1.3,6.5,0,.8.7,1,1.3,1s.4,0,.6,0c.4,0,.7-.3.8-.8.2-1.3,0-4.8-.3-5.9h0Z"/>
      <polygon class="st0" points="527.7 89.3 521.9 89.3 524.3 85.7 527.7 89.3"/>
      <path class="st0" d="M520,89.3h1.4l-1.8-1.8-2,2.2-3.7-3-4.3,3.7v-10.3c0-.4.5-.9.9-.9h17.4c.5,0,1,.4,1,.9v5.8c.3-1.3,1.3-2.8,1.9-3.5.3-.3.5-.5.9-.8v-1.6c0-1.9-1.5-3.5-3.4-3.7h-18c-1.9.2-3.3,1.8-3.3,3.6v13.4c0,1.8,1.5,3.4,3.4,3.6h7.6c0-.6,0-1.1,0-1.7,0-1.3,0-2.7,0-3.9h0c0-.7.4-1.3.7-1.5.3-.3.8-.7,1.3-.7h0Z"/>
      <path class="st0" d="M517,86.1c2.6-.1,2.5-4.2-.2-4.1-2.7,0-2.5,4.2.2,4.1Z"/>
    </g>
  </g>
  <g>
    <path d="M421.8,41.4h2.5c2,0,3.4.5,4.4,1.6,1,1,1.4,2.2,1.4,3.6s-.5,2.5-1.5,3.6-2.4,1.6-4.3,1.6h-2.5v-10.2ZM423.2,42.8v7.5h0c1,0,1.8,0,2.3-.1.5,0,1-.3,1.5-.6.5-.3.8-.7,1.1-1.3.3-.5.4-1.1.4-1.7s-.2-1.5-.7-2.1c-.4-.6-1-1.1-1.6-1.3-.6-.2-1.5-.3-2.5-.3h-.7Z"/>
    <path d="M438.2,48.6h-5.7c.1.7.4,1.2.8,1.5.4.3.9.5,1.4.5.8,0,1.5-.3,2-1l1,.8c-.8,1-1.8,1.5-3.1,1.5s-1.8-.3-2.5-1c-.7-.7-1-1.5-1-2.5s.3-1.8,1-2.4c.7-.7,1.5-1,2.5-1s1.8.3,2.5,1,1,1.6,1,2.7ZM432.7,47.5h4.1c-.5-.9-1.1-1.4-2-1.4s-1.6.5-2.1,1.4Z"/>
    <path d="M443.8,45.8l-.9.8c-.2-.2-.5-.3-.6-.4s-.4-.1-.6-.1c-.6,0-.9.2-.9.6s.4.6,1.1.9c.7.3,1.2.6,1.6.9.3.3.5.7.5,1.2s-.2,1-.7,1.5c-.5.4-1,.6-1.6.6-.9,0-1.7-.4-2.3-1.3l1.1-.5c.4.4.8.6,1.2.6s.5,0,.8-.2c.2-.2.3-.3.3-.6,0-.4-.4-.7-1.1-1s-1.3-.6-1.6-.9-.4-.7-.4-1.1.2-1,.6-1.4c.4-.4.9-.6,1.6-.6s1.3.3,2.1,1Z"/>
    <path d="M445.7,43.1h1.4v1.9h1.4v1.3h-1.4v5.4h-1.4v-5.4h-1.1v-1.3h1.1v-1.9Z"/>
    <path d="M451.3,45v1.4c.3-.5.6-.9.9-1.2.3-.2.7-.4,1.2-.4s.3,0,.6,0l-.4,1.4c-.3,0-.4,0-.5,0-.5,0-.9.2-1.2.5s-.5.7-.5,1.2v3.7h-1.4v-6.6h1.4Z"/>
    <path d="M460.7,45h1.4v6.6h-1.4v-1.3c-.7,1-1.5,1.5-2.5,1.5s-1.6-.3-2.2-1c-.6-.7-.9-1.5-.9-2.5s.3-1.7.9-2.4c.6-.7,1.4-1,2.2-1s1,.1,1.5.4c.5.3.8.7,1.1,1.1v-1.4ZM460.8,48.4c0-.6-.2-1.1-.7-1.6-.4-.4-1-.6-1.6-.6s-1.1.2-1.5.6c-.4.4-.7.9-.7,1.5s.2,1.2.6,1.6c.4.4,1,.7,1.6.7s1.1-.2,1.6-.7c.4-.4.7-1,.7-1.6Z"/>
    <path d="M463.9,51.6v-6.6h1.4v1.1c.4-.4.8-.8,1.1-1,.3-.2.7-.3,1.1-.3.6,0,1.1.2,1.5.6.4.4.6.9.6,1.4v4.8h-1.4v-4.4c0-.4-.1-.7-.3-.9-.2-.2-.5-.4-.9-.4s-.9.2-1.2.6c-.3.4-.5.9-.5,1.4v3.6h-1.4Z"/>
    <path d="M476.3,49.6v1.6c-.7.4-1.4.6-2.1.6s-1.7-.3-2.4-1c-.7-.7-1-1.5-1-2.4s.3-1.9,1-2.6c.7-.7,1.5-1,2.6-1s1.3.2,1.9.5v1.6c-.7-.5-1.4-.7-2-.7s-1.1.2-1.5.6-.7.9-.7,1.4.2,1.1.6,1.6c.4.4.9.6,1.5.6s1.3-.3,2.1-.8Z"/>
    <path d="M483.3,45h1.4v6.6h-1.4v-1.3c-.7,1-1.5,1.5-2.5,1.5s-1.6-.3-2.2-1c-.6-.7-.9-1.5-.9-2.5s.3-1.7.9-2.4c.6-.7,1.4-1,2.2-1s1,.1,1.5.4c.5.3.8.7,1.1,1.1v-1.4ZM483.5,48.4c0-.6-.2-1.1-.7-1.6-.4-.4-1-.6-1.6-.6s-1.1.2-1.5.6c-.4.4-.7.9-.7,1.5s.2,1.2.6,1.6c.4.4,1,.7,1.6.7s1.1-.2,1.6-.7c.4-.4.7-1,.7-1.6Z"/>
    <path d="M488.3,45v1.4c.3-.5.6-.9.9-1.2.3-.2.7-.4,1.2-.4s.3,0,.6,0l-.4,1.4c-.3,0-.4,0-.5,0-.5,0-.9.2-1.2.5s-.5.7-.5,1.2v3.7h-1.4v-6.6h1.4Z"/>
    <path d="M496.5,42.8c0-.3.1-.5.3-.8.2-.2.5-.3.8-.3s.5.1.8.3c.2.2.3.5.3.8s-.1.5-.3.8c-.2.2-.5.3-.8.3s-.5-.1-.8-.3c-.2-.2-.3-.5-.3-.8ZM496.9,45h1.4v6.6h-1.4v-6.6Z"/>
    <path d="M500.3,51.6v-6.6h1.4v1c.3-.4.6-.7.9-.9.3-.2.6-.3,1-.3s.9.1,1.2.3c.3.2.5.6.7,1.1.3-.5.7-.8,1-1.1s.7-.3,1.1-.3,1,.2,1.4.6c.4.4.6.9.6,1.4v4.8h-1.4v-4.5c0-.7-.4-1.1-1.1-1.1s-.8.2-1.1.6c-.3.4-.4.8-.4,1.4v3.6h-1.4v-4.3c0-.9-.4-1.3-1.1-1.3s-.8.2-1.1.5-.4.8-.4,1.3v3.7h-1.4Z"/>
    <path d="M517,45h1.4v6.6h-1.4v-1.3c-.7,1-1.5,1.5-2.5,1.5s-1.6-.3-2.2-1c-.6-.7-.9-1.5-.9-2.5s.3-1.7.9-2.4c.6-.7,1.4-1,2.2-1s1,.1,1.5.4c.5.3.8.7,1.1,1.1v-1.4ZM517.2,48.4c0-.6-.2-1.1-.7-1.6-.4-.4-1-.6-1.6-.6s-1.1.2-1.5.6-.7.9-.7,1.5.2,1.2.6,1.6c.4.4,1,.7,1.6.7s1.1-.2,1.6-.7c.4-.4.7-1,.7-1.6Z"/>
    <path d="M526,45h1.4v6.4c0,.9-.3,1.7-1,2.4-.6.7-1.4,1-2.3,1s-1.3-.2-1.9-.6c-.6-.4-1-1-1.3-1.7h1.4c.4.7,1,1.1,1.8,1.1s1-.2,1.3-.6c.4-.4.6-.8.6-1.4v-1.3c-.7,1-1.5,1.5-2.6,1.5s-1.6-.3-2.2-1c-.6-.7-.9-1.5-.9-2.5s.3-1.8.9-2.5c.6-.7,1.3-1,2.2-1s2,.5,2.6,1.6v-1.4ZM526.2,48.3c0-.6-.2-1.1-.6-1.6-.4-.4-1-.6-1.6-.6s-1.1.2-1.5.7c-.4.4-.7.9-.7,1.5s.2,1.1.7,1.6c.4.4,1,.7,1.6.7s1.1-.2,1.6-.7c.4-.4.7-1,.7-1.6Z"/>
    <path d="M535.8,48.6h-5.7c.1.7.4,1.2.8,1.5s.9.5,1.4.5c.8,0,1.5-.3,2-1l1,.8c-.8,1-1.8,1.5-3.1,1.5s-1.8-.3-2.5-1c-.7-.7-1-1.5-1-2.5s.3-1.8,1-2.4c.7-.7,1.5-1,2.5-1s1.8.3,2.5,1c.7.7,1,1.6,1,2.7ZM530.3,47.5h4.1c-.4-.9-1.1-1.4-2-1.4s-1.6.5-2.1,1.4Z"/>
    <path d="M537.3,51.6v-6.6h1.4v1c.3-.4.6-.7.9-.9.3-.2.6-.3,1-.3s.9.1,1.2.3c.3.2.5.6.7,1.1.4-.5.7-.8,1-1.1.3-.2.7-.3,1.1-.3s1,.2,1.4.6c.4.4.6.9.6,1.4v4.8h-1.4v-4.5c0-.7-.4-1.1-1.1-1.1s-.8.2-1.1.6c-.3.4-.4.8-.4,1.4v3.6h-1.4v-4.3c0-.9-.4-1.3-1.1-1.3s-.8.2-1.1.5-.4.8-.4,1.3v3.7h-1.4Z"/>
  </g>
  <rect class="st0" x="147.3" y="157" width="383" height="423.6" rx="21.8" ry="21.8"/>
  <g>
    <path class="st6" d="M263.3,177h1.1v7.1h2.7v1.1h-3.8v-8.2Z"/>
    <path class="st6" d="M267.9,178.2c0-.2,0-.4.3-.6s.4-.3.6-.3.4,0,.6.3.3.4.3.6,0,.4-.3.6c-.2.2-.4.3-.6.3s-.4,0-.6-.3c-.2-.2-.3-.4-.3-.6ZM268.2,179.9h1.1v5.3h-1.1v-5.3Z"/>
    <path class="st6" d="M274.2,180.6l-.7.7c-.2-.1-.4-.2-.5-.3s-.3-.1-.5-.1c-.5,0-.7.2-.7.5s.3.5.9.7,1,.5,1.2.7.4.6.4,1-.2.8-.5,1.2c-.4.3-.8.5-1.3.5-.8,0-1.4-.3-1.8-1l.9-.4c.3.3.6.5,1,.5s.4,0,.6-.2.3-.3.3-.4c0-.3-.3-.6-.9-.8s-1-.5-1.3-.7c-.2-.2-.4-.5-.4-.9s.2-.8.5-1.1c.3-.3.7-.4,1.3-.4s1.1.3,1.7.8Z"/>
    <path class="st6" d="M275.7,178.4h1.1v1.5h1.1v1h-1.1v4.3h-1.1v-4.3h-.9v-1h.9v-1.5Z"/>
    <path class="st6" d="M283.4,179.9h1.1v5.3h-1.1v-1.1c-.5.8-1.2,1.2-2,1.2s-1.3-.3-1.8-.8-.7-1.2-.7-2,.2-1.4.7-1.9,1.1-.8,1.8-.8.8.1,1.2.3c.4.2.7.5.9.9v-1.1ZM283.6,182.6c0-.5-.2-.9-.5-1.2-.3-.3-.8-.5-1.2-.5s-.9.2-1.2.5c-.4.3-.5.7-.5,1.2s.2.9.5,1.3c.3.4.8.5,1.2.5s.9-.2,1.2-.5c.3-.3.5-.8.5-1.2Z"/>
    <path class="st6" d="M294.3,176.9h1.1v8.3h-1.1v-1.1c-.5.8-1.2,1.3-2.1,1.3s-1.3-.3-1.8-.8c-.5-.6-.7-1.2-.7-2s.3-1.4.8-2c.5-.5,1.1-.8,1.8-.8s.8.1,1.2.3c.4.2.6.5.9.9v-4.1ZM294.4,182.6c0-.5-.2-.9-.5-1.2-.3-.3-.8-.5-1.2-.5s-.9.2-1.3.5c-.3.3-.5.8-.5,1.3s.2.9.5,1.2c.4.4.8.5,1.2.5s.9-.2,1.3-.5c.3-.3.5-.8.5-1.3Z"/>
    <path class="st6" d="M302.4,182.8h-4.5c0,.5.3.9.7,1.2.3.3.7.4,1.1.4.6,0,1.2-.3,1.6-.8l.8.6c-.6.8-1.4,1.2-2.5,1.2s-1.4-.3-2-.8c-.5-.5-.8-1.2-.8-2s.3-1.4.8-2,1.2-.8,2-.8,1.4.3,2,.8.8,1.3.8,2.2ZM298,181.9h3.2c-.4-.7-.9-1.1-1.6-1.1s-1.3.4-1.6,1.1Z"/>
    <path class="st6" d="M307.1,178.2c0-.2,0-.4.3-.6s.4-.3.6-.3.4,0,.6.3.3.4.3.6,0,.4-.3.6c-.2.2-.4.3-.6.3s-.4,0-.6-.3c-.2-.2-.3-.4-.3-.6ZM307.4,179.9h1.1v5.3h-1.1v-5.3Z"/>
    <path class="st6" d="M310.1,185.2v-5.3h1.1v.8c.3-.3.5-.6.7-.7.2-.2.5-.2.8-.2s.7,0,.9.3c.2.2.4.5.6.8.3-.4.5-.7.8-.8.3-.2.6-.3.9-.3s.8.2,1.1.5c.3.3.5.7.5,1.1v3.9h-1.1v-3.6c0-.6-.3-.9-.9-.9s-.6.1-.8.5-.3.7-.3,1.1v2.9h-1.1v-3.4c0-.7-.3-1-.9-1s-.6.1-.9.4-.4.6-.4,1v3h-1.1Z"/>
    <path class="st6" d="M323.5,179.9h1.1v5.3h-1.1v-1.1c-.5.8-1.2,1.2-2,1.2s-1.3-.3-1.8-.8-.7-1.2-.7-2,.2-1.4.7-1.9,1.1-.8,1.8-.8.8.1,1.2.3c.4.2.7.5.9.9v-1.1ZM323.6,182.6c0-.5-.2-.9-.5-1.2-.3-.3-.8-.5-1.2-.5s-.9.2-1.2.5c-.4.3-.5.7-.5,1.2s.2.9.5,1.3c.3.4.8.5,1.2.5s.9-.2,1.2-.5c.3-.3.5-.8.5-1.2Z"/>
    <path class="st6" d="M330.7,179.9h1.1v5.1c0,.8-.3,1.4-.8,1.9s-1.1.8-1.9.8-1.1-.2-1.5-.5-.8-.8-1-1.4h1.2c.3.6.8.9,1.4.9s.8-.2,1.1-.5.4-.7.4-1.1v-1c-.5.8-1.2,1.2-2,1.2s-1.3-.3-1.8-.8c-.5-.6-.8-1.2-.8-2s.2-1.4.7-2c.5-.5,1.1-.8,1.8-.8s1.6.4,2.1,1.3v-1.1ZM330.9,182.6c0-.5-.2-.9-.5-1.2-.3-.3-.8-.5-1.3-.5s-.9.2-1.2.5-.5.7-.5,1.2.2.9.5,1.3.8.5,1.3.5.9-.2,1.3-.5c.3-.3.5-.8.5-1.3Z"/>
    <path class="st6" d="M338.6,182.8h-4.5c0,.5.3.9.7,1.2.3.3.7.4,1.1.4.6,0,1.2-.3,1.6-.8l.8.6c-.6.8-1.4,1.2-2.5,1.2s-1.4-.3-2-.8c-.5-.5-.8-1.2-.8-2s.3-1.4.8-2,1.2-.8,2-.8,1.4.3,2,.8.8,1.3.8,2.2ZM334.2,181.9h3.2c-.4-.7-.9-1.1-1.6-1.1s-1.3.4-1.6,1.1Z"/>
    <path class="st6" d="M339.7,185.2v-5.3h1.1v.9c.3-.4.6-.6.9-.8s.6-.2.9-.2c.5,0,.9.2,1.2.5s.5.7.5,1.1v3.8h-1.1v-3.5c0-.3,0-.5-.3-.7-.2-.2-.4-.3-.7-.3s-.7.2-1,.5c-.3.3-.4.7-.4,1.1v2.9h-1.1Z"/>
    <path class="st6" d="M348.8,180.6l-.7.7c-.2-.1-.4-.2-.5-.3s-.3-.1-.5-.1c-.5,0-.7.2-.7.5s.3.5.9.7,1,.5,1.2.7.4.6.4,1-.2.8-.5,1.2c-.4.3-.8.5-1.3.5-.8,0-1.4-.3-1.8-1l.9-.4c.3.3.6.5,1,.5s.4,0,.6-.2.3-.3.3-.4c0-.3-.3-.6-.9-.8s-1-.5-1.3-.7c-.2-.2-.4-.5-.4-.9s.2-.8.5-1.1c.3-.3.7-.4,1.3-.4s1.1.3,1.7.8Z"/>
    <path class="st6" d="M354,178.4h1.1v1.5h1.1v1h-1.1v4.3h-1.1v-4.3h-.9v-1h.9v-1.5Z"/>
    <path class="st6" d="M358.5,179.9v1.1c.2-.4.5-.8.7-.9.2-.2.5-.3.9-.3s.3,0,.5,0l-.3,1.1c-.2,0-.4,0-.4,0-.4,0-.7.1-.9.4-.3.3-.4.6-.4,1v2.9h-1.1v-5.3h1.1Z"/>
    <path class="st6" d="M366,179.9h1.1v5.3h-1.1v-1.1c-.5.8-1.2,1.2-2,1.2s-1.3-.3-1.8-.8-.7-1.2-.7-2,.2-1.4.7-1.9,1.1-.8,1.8-.8.8.1,1.2.3c.4.2.7.5.9.9v-1.1ZM366.1,182.6c0-.5-.2-.9-.5-1.2-.3-.3-.8-.5-1.2-.5s-.9.2-1.2.5c-.4.3-.5.7-.5,1.2s.2.9.5,1.3c.3.4.8.5,1.2.5s.9-.2,1.2-.5c.3-.3.5-.8.5-1.2Z"/>
    <path class="st6" d="M368.5,185.2v-5.3h1.1v.9c.3-.4.6-.6.9-.8s.6-.2.9-.2c.5,0,.9.2,1.2.5s.5.7.5,1.1v3.8h-1.1v-3.5c0-.3,0-.5-.3-.7-.2-.2-.4-.3-.7-.3s-.7.2-1,.5c-.3.3-.4.7-.4,1.1v2.9h-1.1Z"/>
    <path class="st6" d="M378.5,183.6v1.3c-.6.3-1.1.5-1.7.5s-1.4-.3-1.9-.8c-.6-.6-.8-1.2-.8-1.9s.3-1.5.8-2c.5-.5,1.2-.8,2.1-.8s1,.1,1.5.4v1.2c-.6-.4-1.1-.5-1.6-.5s-.9.2-1.2.5c-.3.3-.5.7-.5,1.1s.2.9.5,1.2c.3.3.7.5,1.2.5s1-.2,1.6-.6Z"/>
    <path class="st6" d="M384.1,179.9h1.1v5.3h-1.1v-1.1c-.5.8-1.2,1.2-2,1.2s-1.3-.3-1.8-.8-.7-1.2-.7-2,.2-1.4.7-1.9,1.1-.8,1.8-.8.8.1,1.2.3c.4.2.7.5.9.9v-1.1ZM384.2,182.6c0-.5-.2-.9-.5-1.2-.3-.3-.8-.5-1.2-.5s-.9.2-1.2.5c-.4.3-.5.7-.5,1.2s.2.9.5,1.3c.3.4.8.5,1.2.5s.9-.2,1.2-.5c.3-.3.5-.8.5-1.2Z"/>
    <path class="st6" d="M391.3,176.9h1.1v8.3h-1.1v-1.1c-.5.8-1.2,1.3-2.1,1.3s-1.3-.3-1.8-.8c-.5-.6-.7-1.2-.7-2s.3-1.4.8-2c.5-.5,1.1-.8,1.8-.8s.8.1,1.2.3c.4.2.6.5.9.9v-4.1ZM391.4,182.6c0-.5-.2-.9-.5-1.2-.3-.3-.8-.5-1.2-.5s-.9.2-1.3.5c-.3.3-.5.8-.5,1.3s.2.9.5,1.2c.4.4.8.5,1.2.5s.9-.2,1.3-.5c.3-.3.5-.8.5-1.3Z"/>
    <path class="st6" d="M398.6,179.9h1.1v5.3h-1.1v-1.1c-.5.8-1.2,1.2-2,1.2s-1.3-.3-1.8-.8-.7-1.2-.7-2,.2-1.4.7-1.9,1.1-.8,1.8-.8.8.1,1.2.3c.4.2.7.5.9.9v-1.1ZM398.7,182.6c0-.5-.2-.9-.5-1.2-.3-.3-.8-.5-1.2-.5s-.9.2-1.2.5c-.4.3-.5.7-.5,1.2s.2.9.5,1.3c.3.4.8.5,1.2.5s.9-.2,1.2-.5c.3-.3.5-.8.5-1.2Z"/>
    <path class="st6" d="M404.6,180.6l-.7.7c-.2-.1-.4-.2-.5-.3s-.3-.1-.5-.1c-.5,0-.7.2-.7.5s.3.5.9.7,1,.5,1.2.7.4.6.4,1-.2.8-.5,1.2c-.4.3-.8.5-1.3.5-.8,0-1.4-.3-1.8-1l.9-.4c.3.3.6.5,1,.5s.4,0,.6-.2.3-.3.3-.4c0-.3-.3-.6-.9-.8s-1-.5-1.3-.7c-.2-.2-.4-.5-.4-.9s.2-.8.5-1.1c.3-.3.7-.4,1.3-.4s1.1.3,1.7.8Z"/>
  </g>
  <g>
    <g>
      <path d="M196.7,203.8l5.2,5.3v-5h1v7.3l-5.2-5.3v5h-1v-7.3Z"/>
      <path d="M203.9,208.8c0-.6.2-1.2.7-1.6.5-.5,1-.7,1.7-.7s1.2.2,1.7.7.7,1,.7,1.7-.2,1.2-.7,1.7c-.5.5-1,.7-1.7.7s-1.2-.2-1.7-.7c-.5-.5-.7-1-.7-1.7ZM207.9,208.8c0-.4-.1-.7-.4-1s-.6-.4-1-.4-.8.1-1.1.4c-.3.3-.4.6-.4,1s.2.7.5,1c.3.3.7.4,1.1.4s.7-.1,1-.4c.3-.3.4-.6.4-1Z"/>
      <path d="M209.7,211.1v-4.5h.9v.7c.2-.3.4-.5.6-.6.2-.1.4-.2.7-.2s.6,0,.8.2.4.4.5.7c.2-.3.5-.6.7-.7s.5-.2.8-.2.7.1.9.4c.3.3.4.6.4,1v3.3h-1v-3c0-.5-.2-.8-.7-.8s-.5.1-.7.4-.3.6-.3.9v2.5h-1v-2.9c0-.6-.2-.9-.7-.9s-.5.1-.7.4c-.2.2-.3.5-.3.9v2.5h-.9Z"/>
      <path d="M221.8,209h-3.9c0,.5.3.8.6,1,.3.2.6.3,1,.3.5,0,1-.2,1.4-.7l.7.5c-.5.7-1.2,1-2.1,1s-1.2-.2-1.7-.7c-.5-.5-.7-1-.7-1.7s.2-1.2.7-1.7c.5-.5,1-.7,1.7-.7s1.2.2,1.7.7c.5.5.7,1.1.7,1.9ZM218,208.2h2.8c-.3-.6-.8-.9-1.4-.9s-1.1.3-1.4.9Z"/>
      <path d="M228.7,207.1l-.6.6c-.2-.1-.3-.2-.4-.3-.1,0-.3,0-.4,0-.4,0-.6.1-.6.4s.2.4.7.6c.5.2.8.4,1.1.6s.3.5.3.8-.2.7-.5,1c-.3.3-.7.4-1.1.4-.6,0-1.2-.3-1.6-.9l.8-.4c.3.3.5.4.8.4s.4,0,.5-.2c.1-.1.2-.2.2-.4,0-.3-.3-.5-.8-.7-.5-.2-.9-.4-1.1-.6-.2-.2-.3-.5-.3-.8s.1-.7.4-.9c.3-.3.6-.4,1.1-.4s.9.2,1.4.7Z"/>
      <path d="M233.5,206.5h1v4.5h-1v-.9c-.5.7-1,1-1.7,1s-1.1-.2-1.5-.7c-.4-.5-.6-1-.6-1.7s.2-1.2.6-1.7.9-.7,1.5-.7.7,0,1,.3c.3.2.6.4.7.8v-.9ZM233.7,208.8c0-.4-.1-.8-.4-1.1-.3-.3-.7-.4-1.1-.4s-.8.1-1.1.4c-.3.3-.4.6-.4,1s.1.8.4,1.1c.3.3.6.4,1.1.4s.8-.1,1.1-.4c.3-.3.4-.7.4-1.1Z"/>
      <path d="M236,203.9h1v7.1h-1v-7.1Z"/>
      <path d="M237.9,206.5h1l1.3,2.6,1.3-2.6h1l-2.3,4.7-2.3-4.7Z"/>
      <path d="M242.8,208.8c0-.6.2-1.2.7-1.6.5-.5,1-.7,1.7-.7s1.2.2,1.7.7.7,1,.7,1.7-.2,1.2-.7,1.7c-.5.5-1,.7-1.7.7s-1.2-.2-1.7-.7c-.5-.5-.7-1-.7-1.7ZM246.7,208.8c0-.4-.1-.7-.4-1s-.6-.4-1-.4-.8.1-1.1.4c-.3.3-.4.6-.4,1s.2.7.5,1c.3.3.7.4,1.1.4s.7-.1,1-.4c.3-.3.4-.6.4-1Z"/>
    </g>
    <g>
      <path d="M387.2,204.1h.9v7.1h-.9v-.9c-.4.7-1,1.1-1.8,1.1s-1.1-.2-1.5-.7c-.4-.5-.6-1-.6-1.7s.2-1.2.6-1.7.9-.7,1.5-.7.7,0,1,.3c.3.2.6.5.7.8v-3.5ZM387.3,208.9c0-.4-.1-.8-.4-1.1-.3-.3-.6-.4-1.1-.4s-.8.1-1.1.4c-.3.3-.4.6-.4,1.1s.2.8.4,1.1c.3.3.6.5,1,.5s.8-.1,1.1-.4c.3-.3.4-.6.4-1.1Z"/>
      <path d="M393.4,206.7h1v4.5h-1v-.9c-.5.7-1,1-1.7,1s-1.1-.2-1.5-.7c-.4-.5-.6-1-.6-1.7s.2-1.2.6-1.7.9-.7,1.5-.7.7,0,1,.3c.3.2.6.4.7.8v-.9ZM393.5,209c0-.4-.1-.8-.4-1.1-.3-.3-.7-.4-1.1-.4s-.8.1-1.1.4c-.3.3-.4.6-.4,1s.1.8.4,1.1c.3.3.6.4,1.1.4s.8-.1,1.1-.4c.3-.3.4-.7.4-1.1Z"/>
      <path d="M396.1,205.4h1v1.3h.9v.9h-.9v3.6h-1v-3.6h-.8v-.9h.8v-1.3Z"/>
      <path d="M402.6,206.7h1v4.5h-1v-.9c-.5.7-1,1-1.7,1s-1.1-.2-1.5-.7c-.4-.5-.6-1-.6-1.7s.2-1.2.6-1.7.9-.7,1.5-.7.7,0,1,.3c.3.2.6.4.7.8v-.9ZM402.7,209c0-.4-.1-.8-.4-1.1-.3-.3-.7-.4-1.1-.4s-.8.1-1.1.4c-.3.3-.4.6-.4,1s.1.8.4,1.1c.3.3.6.4,1.1.4s.8-.1,1.1-.4c.3-.3.4-.7.4-1.1Z"/>
      <path d="M411.9,204.1h.9v7.1h-.9v-.9c-.4.7-1,1.1-1.8,1.1s-1.1-.2-1.5-.7c-.4-.5-.6-1-.6-1.7s.2-1.2.6-1.7.9-.7,1.5-.7.7,0,1,.3c.3.2.6.5.7.8v-3.5ZM412,208.9c0-.4-.1-.8-.4-1.1-.3-.3-.6-.4-1.1-.4s-.8.1-1.1.4c-.3.3-.4.6-.4,1.1s.2.8.4,1.1c.3.3.6.5,1,.5s.8-.1,1.1-.4c.3-.3.4-.6.4-1.1Z"/>
      <path d="M418.8,209.1h-3.9c0,.5.3.8.6,1,.3.2.6.3,1,.3.5,0,1-.2,1.4-.7l.7.5c-.5.7-1.2,1-2.1,1s-1.2-.2-1.7-.7c-.5-.5-.7-1-.7-1.7s.2-1.2.7-1.7c.5-.5,1-.7,1.7-.7s1.2.2,1.7.7c.5.5.7,1.1.7,1.9ZM415,208.4h2.8c-.3-.6-.8-.9-1.4-.9s-1.1.3-1.4.9Z"/>
      <path d="M425.7,207.2l-.6.6c-.2-.1-.3-.2-.4-.3-.1,0-.3,0-.4,0-.4,0-.6.1-.6.4s.2.4.7.6c.5.2.8.4,1.1.6s.3.5.3.8-.2.7-.5,1c-.3.3-.7.4-1.1.4-.6,0-1.2-.3-1.6-.9l.8-.4c.3.3.5.4.8.4s.4,0,.5-.2c.1-.1.2-.2.2-.4,0-.3-.3-.5-.8-.7-.5-.2-.9-.4-1.1-.6-.2-.2-.3-.5-.3-.8s.1-.7.4-.9c.3-.3.6-.4,1.1-.4s.9.2,1.4.7Z"/>
      <path d="M430.5,206.7h1v4.5h-1v-.9c-.5.7-1,1-1.7,1s-1.1-.2-1.5-.7c-.4-.5-.6-1-.6-1.7s.2-1.2.6-1.7.9-.7,1.5-.7.7,0,1,.3c.3.2.6.4.7.8v-.9ZM430.7,209c0-.4-.1-.8-.4-1.1-.3-.3-.7-.4-1.1-.4s-.8.1-1.1.4c-.3.3-.4.6-.4,1s.1.8.4,1.1c.3.3.6.4,1.1.4s.8-.1,1.1-.4c.3-.3.4-.7.4-1.1Z"/>
      <path d="M433,204.1h1v7.1h-1v-7.1Z"/>
      <path d="M439.2,206.7h1v4.5h-1v-.9c-.5.7-1,1-1.7,1s-1.1-.2-1.5-.7c-.4-.5-.6-1-.6-1.7s.2-1.2.6-1.7.9-.7,1.5-.7.7,0,1,.3c.3.2.6.4.7.8v-.9ZM439.3,209c0-.4-.1-.8-.4-1.1-.3-.3-.7-.4-1.1-.4s-.8.1-1.1.4c-.3.3-.4.6-.4,1s.1.8.4,1.1c.3.3.6.4,1.1.4s.8-.1,1.1-.4c.3-.3.4-.7.4-1.1Z"/>
      <path d="M441.1,206.7h1l1.3,2.6,1.3-2.6h1l-2.3,4.7-2.3-4.7Z"/>
      <path d="M450.1,206.7h1v4.5h-1v-.9c-.5.7-1,1-1.7,1s-1.1-.2-1.5-.7c-.4-.5-.6-1-.6-1.7s.2-1.2.6-1.7.9-.7,1.5-.7.7,0,1,.3c.3.2.6.4.7.8v-.9ZM450.2,209c0-.4-.1-.8-.4-1.1-.3-.3-.7-.4-1.1-.4s-.8.1-1.1.4c-.3.3-.4.6-.4,1s.1.8.4,1.1c.3.3.6.4,1.1.4s.8-.1,1.1-.4c.3-.3.4-.7.4-1.1Z"/>
      <path d="M452.4,211.2v-4.5h.9v.7c.2-.3.4-.5.6-.6.2-.1.4-.2.7-.2s.6,0,.8.2.4.4.5.7c.2-.3.5-.6.7-.7s.5-.2.8-.2.7.1.9.4c.3.3.4.6.4,1v3.3h-1v-3c0-.5-.2-.8-.7-.8s-.5.1-.7.4-.3.6-.3.9v2.5h-1v-2.9c0-.6-.2-.9-.7-.9s-.5.1-.7.4c-.2.2-.3.5-.3.9v2.5h-.9Z"/>
      <path d="M464.4,209.1h-3.9c0,.5.3.8.6,1,.3.2.6.3,1,.3.5,0,1-.2,1.4-.7l.7.5c-.5.7-1.2,1-2.1,1s-1.2-.2-1.7-.7c-.5-.5-.7-1-.7-1.7s.2-1.2.7-1.7c.5-.5,1-.7,1.7-.7s1.2.2,1.7.7c.5.5.7,1.1.7,1.9ZM460.7,208.4h2.8c-.3-.6-.8-.9-1.4-.9s-1.1.3-1.4.9Z"/>
      <path d="M465.4,211.2v-4.5h.9v.8c.3-.3.5-.5.7-.7.2-.1.5-.2.7-.2.4,0,.8.1,1,.4s.4.6.4,1v3.3h-1v-3c0-.2,0-.4-.2-.6-.2-.2-.4-.2-.6-.2s-.6.1-.8.4c-.2.3-.3.6-.3,1v2.5h-.9Z"/>
      <path d="M470.8,205.4h1v1.3h.9v.9h-.9v3.6h-1v-3.6h-.8v-.9h.8v-1.3Z"/>
      <path d="M473.2,208.9c0-.6.2-1.2.7-1.6.5-.5,1-.7,1.7-.7s1.2.2,1.7.7.7,1,.7,1.7-.2,1.2-.7,1.7c-.5.5-1,.7-1.7.7s-1.2-.2-1.7-.7c-.5-.5-.7-1-.7-1.7ZM477.2,208.9c0-.4-.1-.7-.4-1s-.6-.4-1-.4-.8.1-1.1.4c-.3.3-.4.6-.4,1s.2.7.5,1c.3.3.7.4,1.1.4s.7-.1,1-.4c.3-.3.4-.6.4-1Z"/>
    </g>
  </g>
</svg>